<svg xmlns="http://www.w3.org/2000/svg" width="647.012" height="647.012"><path fill="#fff" stroke="#fff" stroke-linecap="round" stroke-linejoin="round" stroke-miterlimit="10" stroke-width="48.54962999999999" d="M622.737 323.474c0 165.246-133.89 299.263-299.263 299.263-165.182 0-299.2-134.017-299.2-299.263 0-165.372 134.018-299.2 299.2-299.2 165.373 0 299.263 133.828 299.263 299.2"/><path fill="none" stroke="#333b9b" stroke-linecap="round" stroke-linejoin="round" stroke-width="48.54962999999999" d="M622.737 323.474c0 165.246-133.89 299.263-299.263 299.263-165.182 0-299.2-134.017-299.2-299.263 0-165.372 134.018-299.2 299.2-299.2 165.373 0 299.263 133.828 299.263 299.2m0 0"/><path fill="#fff" stroke="#fff" stroke-linecap="round" stroke-linejoin="round" stroke-miterlimit="10" stroke-width="48.54962999999999" d="M622.737 323.474c0 165.246-133.89 299.263-299.263 299.263-165.182 0-299.2-134.017-299.2-299.263 0-165.372 134.018-299.2 299.2-299.2 165.373 0 299.263 133.828 299.263 299.2"/><path fill="#333b9b" stroke="#fff" stroke-linecap="round" stroke-linejoin="round" stroke-miterlimit="10" stroke-width="48.54962999999999" d="M614.077 323.474c0 160.504-130.098 290.602-290.603 290.602-160.314 0-290.539-130.098-290.539-290.602 0-160.505 130.225-290.602 290.54-290.602 160.504 0 290.602 130.097 290.602 290.602"/><path fill="#fff" stroke="#fff" stroke-linecap="round" stroke-linejoin="round" stroke-miterlimit="10" stroke-width="48.54962999999999" d="M560.976 323.474c0 131.11-106.266 237.311-237.502 237.311-131.046 0-237.311-106.202-237.311-237.311 0-131.046 106.265-237.501 237.311-237.501 131.236 0 237.502 106.455 237.502 237.501"/><path fill="#aae4fa" stroke="#fff" stroke-linecap="round" stroke-linejoin="round" stroke-miterlimit="10" stroke-width="48.54962999999999" d="M231.496 171.377h89.956l89.703-.063s48.929 6.7 83.444 42.734c38.562 40.584 65.428 129.908-1.264 201.594-17.195 18.396-41.66 28.51-74.531 40.648H228.777c-35.21-12.137-61.382-22.252-79.714-40.648-71.308-71.686-42.608-161.01-1.265-201.594 36.729-36.033 83.698-42.67 83.698-42.67"/><path fill="#aae4fa" stroke="#fff" stroke-linecap="round" stroke-linejoin="round" stroke-miterlimit="10" stroke-width="48.54962999999999" d="M448.641 235.541s100.766 130.35-52.469 219.738M259.69 170.176s-146.597 50.51-95.961 208.738"/><path fill="#211f1f" d="M230.547 164.613c-1.96.316-49.624 7.333-87.553 44.567-21.367 20.988-44.251 60.055-44.251 106.834 0 38.436 15.74 74.532 45.452 104.496 19.66 19.66 47.728 30.343 82.37 42.228l192.239.379 2.339-.442c32.43-11.885 58.727-22.568 77.186-42.355 27.815-29.9 42.48-65.934 42.48-104.305 0-46.59-21.303-85.658-41.279-106.645-35.717-37.424-85.341-44.567-88.375-44.883zm259.058 54.176c18.206 19.091 37.55 54.618 37.55 97.225 0 34.832-13.401 67.641-38.814 94.95-16.057 17.195-40.205 27.183-69.98 38.183 37.55-26.361 60.245-57.906 67.325-94.065 1.643-8.534 2.339-16.816 2.339-24.907 0-54.113-32.43-96.783-34.01-98.806l-10.81 8.407c.442.505 40.584 53.354 29.016 112.65-7.333 37.867-34.137 70.486-79.462 96.91l.065.13H229.917c-32.43-11.19-58.664-21.24-75.985-38.625-27.183-27.309-41.533-60.118-41.533-94.823 0-42.481 20.735-78.008 40.205-97.036 27.689-27.246 61.952-36.982 74.215-39.763-41.47 25.792-106.455 86.416-69.6 201.784l13.022-4.172c-43.871-137.241 64.607-189.268 87.617-198.623l152.413-.13c.442.065 46.906 6.764 79.336 40.711"/><path fill="none" stroke="#fff" stroke-linecap="round" stroke-linejoin="round" stroke-miterlimit="10" stroke-width="48.54962999999999" d="M230.547 164.613c-1.96.316-49.624 7.333-87.553 44.567-21.367 20.988-44.251 60.055-44.251 106.835 0 38.435 15.74 74.53 45.452 104.495 19.66 19.66 47.728 30.343 82.37 42.228l192.239.38 2.339-.443c32.43-11.885 58.727-22.568 77.186-42.355 27.815-29.9 42.48-65.933 42.48-104.305 0-46.59-21.303-85.658-41.279-106.645-35.717-37.424-85.341-44.567-88.375-44.883zm259.058 54.176c18.206 19.091 37.55 54.618 37.55 97.226 0 34.831-13.401 67.64-38.814 94.95-16.057 17.194-40.205 27.182-69.98 38.182 37.55-26.361 60.245-57.906 67.325-94.065 1.643-8.534 2.339-16.816 2.339-24.907 0-54.113-32.43-96.783-34.01-98.806l-10.81 8.407c.442.506 40.584 53.354 29.016 112.65-7.333 37.867-34.137 70.486-79.462 96.91l.063.127H229.915c-32.43-11.19-58.664-21.24-75.985-38.625-27.183-27.31-41.533-60.118-41.533-94.824 0-42.48 20.735-78.008 40.206-97.036 27.688-27.246 61.95-36.98 74.215-39.762-41.47 25.792-106.455 86.415-69.6 201.784l13.022-4.172c-43.872-137.241 64.606-189.268 87.617-198.624l152.413-.126c.442.063 46.906 6.764 79.335 40.71zm0 0"/><path fill="#e3b183" stroke="#fff" stroke-linecap="round" stroke-linejoin="round" stroke-miterlimit="10" stroke-width="48.54962999999999" d="M227.26 370.317h183.452l38.878-21.114-38.878 65.365-210.571-.316zm0 0"/><path fill="#211f1f" stroke="#fff" stroke-linecap="round" stroke-linejoin="round" stroke-miterlimit="10" stroke-width="48.54962999999999" d="m468.175 331.25-53.607 90.145-226.691-.316 35.59-57.59h185.475Zm-61.382 76.49 24.148-40.647-18.522 10.051H231.053l-18.712 30.28zm-162.148-99.754-20.862 3.098v-45.895h-7.27v46.4l-12.263 1.138 1.96 12.77 38.435-10.367v35.021h7.143v-61.825h8.155v-7.523h-8.155v-55.819h-7.143Zm0 0"/><path fill="#211f1f" d="M230.105 288.642c-.19 2.718-.505 4.93-.948 6.89l-.19.633 2.972 4.615 1.263-2.402c1.201-2.276 2.213-5.816 2.972-10.494 1.011-5.12 1.58-9.988 1.58-14.476V232.38h-29.71v7.523h22.568V276c0 5.31-.19 9.545-.505 12.643"/><path fill="none" stroke="#fff" stroke-linecap="round" stroke-linejoin="round" stroke-miterlimit="10" stroke-width="48.54962999999999" d="M230.105 288.642c-.19 2.718-.506 4.931-.948 6.89l-.19.633 2.971 4.615 1.265-2.403c1.2-2.275 2.212-5.815 2.97-10.493 1.012-5.12 1.581-9.989 1.581-14.477V232.38h-29.711v7.523h22.568v36.096c0 5.31-.19 9.546-.506 12.643m0 0"/><path fill="#211f1f" d="M294.142 293.7c2.34-3.857 3.54-8.661 3.54-14.287 0-5.69-1.2-10.494-3.54-14.287-2.908-4.678-6.637-6.89-11.505-6.89-4.867 0-8.787 2.402-11.442 6.89-2.339 3.856-3.54 8.66-3.54 14.287 0 5.626 1.2 10.43 3.54 14.286 2.718 4.552 6.701 7.017 11.442 7.017 4.678 0 8.534-2.339 11.505-7.017m-19.533-14.286c0-4.299.759-7.902 2.15-10.684 2.148-3.92 4.361-4.362 5.878-4.362 1.581 0 3.92.442 5.88 4.299 1.452 2.971 2.275 6.7 2.275 10.747 0 4.045-.759 7.522-2.276 10.683-2.023 3.856-4.298 4.362-5.879 4.362-1.453 0-3.666-.505-5.816-4.362-1.453-2.908-2.212-6.448-2.212-10.683"/><path fill="none" stroke="#fff" stroke-linecap="round" stroke-linejoin="round" stroke-miterlimit="10" stroke-width="48.54962999999999" d="M294.142 293.7c2.34-3.857 3.54-8.661 3.54-14.287 0-5.69-1.2-10.494-3.54-14.287-2.907-4.678-6.637-6.89-11.505-6.89-4.867 0-8.787 2.402-11.442 6.89-2.339 3.856-3.54 8.66-3.54 14.287 0 5.626 1.201 10.43 3.54 14.286 2.718 4.552 6.701 7.017 11.442 7.017 4.678 0 8.534-2.339 11.505-7.017zm-19.533-14.287c0-4.299.758-7.902 2.15-10.684 2.148-3.92 4.361-4.362 5.878-4.362 1.58 0 3.92.443 5.88 4.299 1.453 2.971 2.275 6.7 2.275 10.747 0 4.045-.759 7.522-2.276 10.683-2.023 3.856-4.298 4.362-5.879 4.362-1.454 0-3.666-.506-5.816-4.362-1.454-2.908-2.212-6.448-2.212-10.683m0 0"/><path fill="#211f1f" d="M265.569 251.408h34.579v-7.649h-34.58zm0 0"/><path fill="none" stroke="#fff" stroke-linecap="round" stroke-linejoin="round" stroke-miterlimit="10" stroke-width="48.54962999999999" d="M265.569 251.471h34.579v-7.649h-34.58zm0 0"/><path fill="#211f1f" d="M304.447 224.984v73.204h7.333v-29.143h8.154v-7.522h-8.154v-36.539zm0 0"/><path fill="none" stroke="#fff" stroke-linecap="round" stroke-linejoin="round" stroke-miterlimit="10" stroke-width="48.54962999999999" d="M311.78 298.188v-29.143h8.154v-7.586h-8.154v-36.475h-7.333v73.204Zm0 0"/><path fill="#211f1f" stroke="#fff" stroke-linecap="round" stroke-linejoin="round" stroke-miterlimit="10" stroke-width="48.54962999999999" d="M304.447 316.267v12.138c0 3.92-.127 7.649-.57 11.315-.252 3.224-.758 5.753-1.074 7.397l-.19.758 3.098 3.92 1.201-2.087c1.328-2.402 2.339-5.563 3.287-8.66 1.075-4.362 1.58-8.471 1.58-12.517v-19.786H270.31v7.522Zm-31.545-80.979h19.597v-7.712h-19.597zm0 0"/><path fill="#211f1f" d="M364.438 278.97v26.93h7.144v-80.853h-7.144v20.925h-9.166c-.57-2.592-1.264-4.994-2.15-7.207-3.413-8.028-8.091-9.672-11.315-9.672-4.868 0-8.787 3.224-11.568 9.672-2.213 5.373-3.35 12.137-3.35 20.103 0 7.965 1.137 14.792 3.35 20.165 2.781 6.638 6.574 9.862 11.568 9.862 3.35 0 8.028-1.77 11.316-9.988.441-1.2.885-2.402 1.264-3.73v3.793zm0-7.396h-9.166c.822-3.92 1.2-8.218 1.2-12.833 0-1.77 0-3.477-.129-5.12h8.092zm-28.384 4.235c-1.516-5.057-2.275-10.81-2.275-17.068s.759-12.074 2.275-16.689c2.276-6.827 4.931-6.827 5.816-6.827 2.592 0 4.362 3.73 5.374 6.827q2.274 6.543 2.275 16.69c0 6.7-.759 12.39-2.275 17.004-.886 2.655-2.655 7.017-5.374 7.017-2.339 0-4.298-2.339-5.816-6.954"/><path fill="none" stroke="#fff" stroke-linecap="round" stroke-linejoin="round" stroke-miterlimit="10" stroke-width="48.54962999999999" d="M364.438 278.97v26.93h7.144v-80.853h-7.144v20.925h-9.166c-.569-2.592-1.264-4.994-2.15-7.207-3.413-8.028-8.091-9.672-11.315-9.672-4.868 0-8.787 3.224-11.568 9.672-2.213 5.373-3.35 12.137-3.35 20.103 0 7.965 1.137 14.792 3.35 20.165 2.781 6.638 6.574 9.862 11.568 9.862 3.35 0 8.028-1.77 11.316-9.988.442-1.201.885-2.402 1.264-3.73v3.793Zm0-7.396h-9.166c.822-3.92 1.201-8.218 1.201-12.833 0-1.77 0-3.477-.126-5.12h8.091Zm-28.384 4.235c-1.517-5.057-2.275-10.81-2.275-17.068s.758-12.074 2.275-16.689c2.276-6.827 4.931-6.827 5.816-6.827 2.592 0 4.362 3.73 5.374 6.827q2.275 6.543 2.275 16.69c0 6.7-.758 12.39-2.275 17.004-.885 2.655-2.655 7.017-5.374 7.017-2.339 0-4.298-2.339-5.816-6.954m0 0"/><path fill="#211f1f" d="M331.63 326.255c0 6.006 1.706 10.874 5.246 14.92 3.92 4.298 8.977 6.384 15.488 6.384 6.132 0 11-2.086 14.856-6.448 3.35-3.982 4.994-8.85 4.994-14.856 0-6.321-1.581-11.505-4.931-15.803-3.856-4.173-8.724-6.196-14.919-6.196-6.574 0-11.632 2.023-15.551 6.259-3.477 4.235-5.184 9.356-5.184 15.74m10.81 10.81c-2.465-2.908-3.603-6.448-3.603-11 0-4.488 1.2-8.09 3.666-11.062q3.604-4.362 9.862-4.362c3.983 0 6.954 1.39 9.356 4.425 2.339 2.719 3.414 6.322 3.414 11 0 4.551-1.075 8.091-3.477 11-2.34 2.844-5.374 4.171-9.293 4.171-4.299 0-7.523-1.327-9.925-4.172"/><path fill="none" stroke="#fff" stroke-linecap="round" stroke-linejoin="round" stroke-miterlimit="10" stroke-width="48.54962999999999" d="M331.63 326.255c0 6.006 1.706 10.874 5.246 14.92 3.92 4.298 8.977 6.384 15.488 6.384 6.132 0 11-2.086 14.856-6.448 3.35-3.982 4.994-8.85 4.994-14.856 0-6.321-1.58-11.505-4.931-15.803-3.856-4.173-8.724-6.196-14.919-6.196-6.574 0-11.632 2.023-15.551 6.259-3.477 4.235-5.184 9.356-5.184 15.74Zm10.81 10.81c-2.466-2.908-3.604-6.448-3.604-11 0-4.488 1.201-8.09 3.666-11.062q3.604-4.362 9.862-4.362c3.983 0 6.954 1.39 9.356 4.425 2.339 2.719 3.414 6.322 3.414 11 0 4.551-1.075 8.091-3.477 11-2.34 2.844-5.374 4.172-9.293 4.172-4.299 0-7.523-1.328-9.925-4.173zm0 0"/><path fill="#211f1f" stroke="#fff" stroke-linecap="round" stroke-linejoin="round" stroke-miterlimit="10" stroke-width="48.54962999999999" d="M419.878 279.855v-53.227h-7.017V307.1c-1.39-5.31-3.413-11.884-5.942-19.47-2.781-8.345-4.678-13.655-6.258-17.7.506-4.742.948-9.61 1.39-14.92l.064-1.706c.316-4.046.569-7.586.695-10.747h8.724v-7.586h-24.78v7.586h8.85c-.443 13.275-1.77 26.803-3.92 40.268-2.086 12.896-4.804 24.275-8.091 33.884l-.19.632 2.529 5.816 1.454-3.16c2.339-4.932 4.614-11.38 6.764-19.345 1.77-6.385 3.287-13.022 4.614-19.786a825 825 0 0 1 3.414 13.528 324 324 0 0 1 4.741 21.367l.822 4.551 5.12-9.988v34.769h7.017v-57.59h4.362v62.647h7.27V224.984h-7.27v54.871Zm0 0"/><path fill="#fff" d="M79.525 380.62c-.505-2.338-1.2-4.298-2.212-6.068-1.138-2.086-2.529-3.413-4.172-4.046l-.442-.129-11.569 2.655 1.264 5.31 10.494-2.465c.065.064.316.252.696.885.696.885 1.264 2.402 1.833 4.678.379 1.833-.065 3.54-1.2 5.183-1.707 2.213-4.426 3.73-8.219 4.615-3.224.76-6.005.57-8.47-.505-2.34-1.011-3.667-2.592-4.173-4.804-.442-2.023-.442-3.73.19-5.31.504-1.39 1.263-2.655 2.338-3.73l2.087-2.15-6.89-1.2-.506.948c-1.137 1.834-1.707 3.667-1.96 5.816-.129 1.96.065 4.236.696 6.764.822 3.793 3.098 6.701 6.575 8.408 3.603 1.833 7.522 2.15 11.821 1.075 4.741-1.138 8.155-3.161 10.115-5.943 1.327-1.833 2.086-4.172 2.086-6.637 0-1.075-.13-2.276-.379-3.35"/><path fill="none" stroke="#fff" stroke-linecap="round" stroke-linejoin="round" stroke-miterlimit="10" stroke-width="48.54962999999999" d="M79.525 380.62c-.505-2.338-1.2-4.298-2.212-6.068-1.138-2.086-2.529-3.413-4.172-4.046l-.443-.126-11.568 2.655 1.264 5.31 10.494-2.465c.063.063.316.253.695.885.695.885 1.264 2.402 1.833 4.678.38 1.833-.063 3.54-1.2 5.183-1.708 2.213-4.426 3.73-8.219 4.615-3.224.759-6.005.57-8.47-.506-2.34-1.011-3.667-2.591-4.173-4.804-.442-2.023-.442-3.73.19-5.31.505-1.39 1.264-2.655 2.339-3.73l2.086-2.15-6.89-1.2-.506.948c-1.138 1.833-1.707 3.666-1.96 5.816-.127 1.96.063 4.235.695 6.764.822 3.793 3.098 6.7 6.575 8.408 3.603 1.833 7.522 2.149 11.821 1.074 4.741-1.138 8.155-3.16 10.114-5.942 1.328-1.833 2.087-4.172 2.087-6.638a15 15 0 0 0-.38-3.35zm0 0"/><path fill="#fff" stroke="#fff" stroke-linecap="round" stroke-linejoin="round" stroke-miterlimit="10" stroke-width="48.54962999999999" d="m74.658 358.622-.632-5.437-11.316 1.454-19.534-7.965.696 5.247 13.717 5.373-11.884 8.977.885 7.333 16.689-13.465zM72.13 324.17l-4.3.189.633 13.781-8.85.316-.696-12.39-4.109.19.506 12.39-8.155.379-.506-12.96-4.298.127.821 18.522 29.712-1.327zm0 0"/><path fill="#fff" d="M73.267 309.314v-1.012c0-3.73-1.516-7.017-4.299-9.419-2.781-2.529-6.258-3.92-10.304-4.109-4.172-.252-7.712.696-10.81 2.908q-5.12 3.508-5.5 9.862l-.064.822c0 3.856 1.516 7.27 4.425 9.735 2.908 2.339 6.321 3.603 10.304 3.856 4.109.19 7.649-.696 10.747-2.718 3.35-2.276 5.247-5.69 5.5-9.925m-26.74-1.138.064-.378c.13-2.529 1.264-4.3 3.73-5.69 2.275-1.327 4.867-1.896 8.028-1.643 3.098.129 5.563.948 7.839 2.528 1.896 1.455 2.908 3.414 2.908 6.006v.064c-.19 2.466-1.39 4.362-3.54 5.69-2.34 1.327-4.994 1.833-8.218 1.707-3.098-.19-5.69-1.012-7.713-2.466-2.086-1.706-3.097-3.603-3.097-5.815"/><path fill="none" stroke="#fff" stroke-linecap="round" stroke-linejoin="round" stroke-miterlimit="10" stroke-width="48.54962999999999" d="M73.267 309.314v-1.012c0-3.73-1.517-7.017-4.299-9.419-2.781-2.529-6.258-3.92-10.304-4.109-4.172-.253-7.712.695-10.81 2.908q-5.12 3.508-5.5 9.862l-.063.821c0 3.857 1.517 7.27 4.425 9.736 2.908 2.339 6.322 3.603 10.304 3.856 4.11.19 7.65-.696 10.747-2.718 3.35-2.276 5.247-5.69 5.5-9.925m-26.74-1.138.063-.38c.126-2.528 1.264-4.298 3.73-5.689 2.276-1.327 4.867-1.896 8.028-1.644 3.098.127 5.563.949 7.839 2.53 1.896 1.453 2.908 3.413 2.908 6.005v.063c-.19 2.465-1.391 4.362-3.54 5.69-2.34 1.327-4.994 1.832-8.218 1.706-3.098-.19-5.69-1.011-7.713-2.465-2.086-1.707-3.097-3.604-3.097-5.816m0 0"/><path fill="#fff" stroke="#fff" stroke-linecap="round" stroke-linejoin="round" stroke-miterlimit="10" stroke-width="48.54962999999999" d="m55.503 286.177 21.24-12.011.696-.38.19-2.718-29.269-4.804-1.075 4.109 19.218 3.16-21.81 12.328-.568 2.718 29.71 5.057.633-4.172Zm25.413-41.786-11.379-3.16-1.517 5.31 10.367 2.718s.127.253.19 1.138c.19 1.2-.126 2.908-.695 4.994-.443 1.833-1.58 3.097-3.414 3.982-2.592 1.138-5.626 1.201-9.545.19-3.224-.885-5.437-2.339-7.144-4.615-1.517-2.023-2.023-3.982-1.327-6.321.442-1.834 1.39-3.288 2.844-4.425.949-.822 2.213-1.518 3.793-2.15l2.529-1.011-5.184-4.299-.948.569c-1.77 1.075-3.35 2.592-4.488 4.172-1.138 1.707-2.023 3.793-2.655 6.195-1.075 3.92-.506 7.333 1.77 10.873 2.149 3.035 5.373 5.184 9.672 6.385 4.867 1.265 8.597 1.138 11.947-.379 3.098-1.454 5.184-4.172 6.196-8.028.632-2.213.948-4.3.948-6.196 0-2.528-.506-4.361-1.644-5.626zm0 0"/><path fill="#fff" d="M83.508 238.133c3.287-1.138 5.69-3.604 7.08-7.333.948-2.466 1.516-4.362 1.707-6.006.065-.568.065-1.011.065-1.516q0-2.75-1.327-4.362l-.19-.315-11.126-4.426-1.96 5.247 9.989 3.856s.129.19.129.949c-.065 1.327-.442 2.908-1.2 4.93-.697 1.77-2.024 3.035-3.857 3.73-2.718.885-5.753.57-9.482-.822-3.035-1.327-5.12-2.971-6.575-5.31-1.327-2.086-1.58-4.362-.759-6.448.76-1.77 1.897-3.287 3.224-4.299 1.201-.759 2.529-1.264 4.046-1.58l2.908-.569-4.994-4.994-1.011.505c-1.897.948-3.477 2.15-4.615 3.54-1.39 1.453-2.529 3.414-3.54 6.006-1.39 3.603-1.201 7.396.696 10.936 2.149 3.54 5.12 6.005 8.913 7.46 4.615 1.77 8.534 2.022 11.885.821"/><path fill="none" stroke="#fff" stroke-linecap="round" stroke-linejoin="round" stroke-miterlimit="10" stroke-width="48.54962999999999" d="M83.508 238.133c3.287-1.138 5.69-3.603 7.08-7.333.948-2.466 1.517-4.362 1.707-6.006.063-.569.063-1.011.063-1.517q0-2.75-1.327-4.362l-.19-.316-11.126-4.425-1.96 5.247 9.988 3.856s.127.19.127.948c-.063 1.328-.443 2.908-1.201 4.931-.696 1.77-2.023 3.035-3.856 3.73-2.719.885-5.753.569-9.483-.822-3.034-1.327-5.12-2.971-6.574-5.31-1.328-2.086-1.58-4.362-.759-6.448.759-1.77 1.897-3.287 3.224-4.299 1.201-.758 2.529-1.264 4.046-1.58l2.908-.569-4.994-4.994-1.012.506c-1.896.948-3.476 2.15-4.614 3.54-1.391 1.454-2.529 3.413-3.54 6.005-1.391 3.604-1.202 7.397.695 10.937 2.15 3.54 5.12 6.005 8.913 7.459 4.615 1.77 8.534 2.023 11.885.822m0 0"/><path fill="#fff" stroke="#fff" stroke-linecap="round" stroke-linejoin="round" stroke-miterlimit="10" stroke-width="48.54962999999999" d="m98.933 210.887-26.93-13.149-2.34 5.057 26.74 12.896zm0 0"/><path fill="#fff" d="M107.214 193.06c2.086-1.075 3.793-2.718 5.373-5.184 1.707-2.844 2.529-5.183 2.529-7.333v-.252c-.065-2.718-1.581-4.994-4.299-6.89-2.086-1.39-4.552-1.517-7.207-.442-1.39.505-3.034 1.707-5.879 3.793-2.212 1.58-3.73 2.591-4.551 2.97-1.516.634-2.34.38-2.908 0-1.39-.884-1.581-1.77-1.644-2.654 0-.886.253-1.77.886-2.719.632-1.011 1.643-1.833 3.034-2.402 1.011-.378 2.086-.57 3.413-.633l2.276-.129-2.528-5.942-1.327.315c-1.834.505-3.414 1.201-4.552 2.213-1.39.948-2.592 2.276-3.73 4.172-1.706 2.592-2.339 5.12-1.96 7.523.38 2.149 1.582 3.919 3.667 5.247s4.488 1.453 7.08.315c1.264-.505 3.035-1.643 5.943-3.73 2.023-1.516 3.54-2.465 4.298-2.844 2.023-.822 2.782-.316 3.098-.13 1.453.949 2.212 1.96 2.339 3.477 0 .822-.379 1.897-1.075 3.034-1.011 1.707-2.402 2.782-4.298 3.414-1.201.442-2.908.633-5.058.633l-3.793-.065 5.627 5.816.822-.13c1.77-.252 3.224-.695 4.425-1.453"/><path fill="none" stroke="#fff" stroke-linecap="round" stroke-linejoin="round" stroke-miterlimit="10" stroke-width="48.54962999999999" d="M107.214 193.06c2.086-1.075 3.793-2.718 5.373-5.184 1.707-2.844 2.529-5.183 2.529-7.333v-.252c-.063-2.719-1.58-4.995-4.299-6.891-2.086-1.39-4.551-1.517-7.207-.442-1.39.505-3.034 1.706-5.879 3.792-2.212 1.58-3.73 2.592-4.551 2.972-1.517.632-2.34.379-2.908 0-1.39-.885-1.58-1.77-1.644-2.655 0-.885.253-1.77.885-2.719.633-1.011 1.644-1.833 3.035-2.402 1.011-.38 2.086-.569 3.413-.632l2.276-.127-2.528-5.942-1.328.316c-1.833.506-3.414 1.201-4.552 2.213-1.39.948-2.591 2.276-3.73 4.172-1.706 2.592-2.338 5.12-1.959 7.523.38 2.15 1.58 3.92 3.667 5.247s4.488 1.454 7.08.316c1.264-.506 3.034-1.644 5.942-3.73 2.023-1.517 3.54-2.465 4.299-2.845 2.023-.822 2.781-.316 3.097-.126 1.454.948 2.213 1.96 2.34 3.477 0 .822-.38 1.896-1.075 3.034-1.012 1.707-2.403 2.782-4.3 3.414-1.2.442-2.907.632-5.056.632l-3.793-.063 5.626 5.815.822-.126c1.77-.253 3.224-.695 4.425-1.454m0 0"/><path fill="#fff" d="M118.53 172.01c3.54-.253 6.637-1.897 8.913-4.931 1.896-2.53 2.97-4.995 3.097-7.586v-.253c0-2.023-.505-3.856-1.516-5.816l-.442-.822h-5.564l1.516 2.403c.948 1.454 1.39 2.844 1.581 4.488q0 2.465-1.707 4.551c-1.39 1.77-3.413 2.592-6.068 2.403-2.782-.19-5.563-1.264-8.029-3.161-2.592-1.96-4.172-4.425-4.804-7.144-.505-2.402-.13-4.425 1.011-5.815.885-1.012 2.023-1.707 3.54-2.15 1.39-.505 2.908-.632 4.615-.505l2.592.13-2.718-6.322-1.264.316c-2.403.505-4.3 1.2-5.753 2.086-1.707 1.011-3.287 2.402-4.615 4.046-1.39 1.96-2.15 3.793-2.402 5.942-.19 1.77 0 3.73.633 5.563.57 1.833 1.453 3.414 2.592 4.994 1.137 1.455 2.465 2.592 3.476 3.477 3.73 3.034 7.523 4.425 11.316 4.109"/><path fill="none" stroke="#fff" stroke-linecap="round" stroke-linejoin="round" stroke-miterlimit="10" stroke-width="48.54962999999999" d="M118.53 172.01c3.54-.254 6.637-1.897 8.913-4.932 1.896-2.528 2.97-4.994 3.097-7.585v-.253c0-2.023-.505-3.856-1.517-5.816l-.442-.822h-5.563l1.517 2.402c.948 1.454 1.39 2.845 1.58 4.489q0 2.464-1.707 4.551c-1.39 1.77-3.413 2.592-6.068 2.402-2.782-.19-5.563-1.264-8.029-3.16-2.591-1.96-4.172-4.426-4.804-7.144-.506-2.402-.126-4.425 1.011-5.816.885-1.011 2.023-1.707 3.54-2.149 1.391-.506 2.908-.632 4.615-.506l2.592.127-2.718-6.322-1.265.316c-2.402.506-4.298 1.201-5.752 2.086-1.707 1.012-3.287 2.403-4.615 4.046-1.39 1.96-2.15 3.793-2.402 5.942-.19 1.77 0 3.73.632 5.563.569 1.834 1.454 3.414 2.592 4.994 1.138 1.454 2.465 2.592 3.477 3.477 3.73 3.035 7.522 4.425 11.315 4.11zm0 0"/><path fill="#fff" stroke="#fff" stroke-linecap="round" stroke-linejoin="round" stroke-miterlimit="10" stroke-width="48.54962999999999" d="m140.086 151.275-21.873-20.04-3.73 4.046 22 20.292zm16.436-16.184-2.908-3.097-9.862 9.609-6.195-6.512 8.914-8.534-2.908-3.034-8.85 8.597-5.753-5.942 9.293-8.977-2.908-3.034-13.276 12.77 20.672 21.556zm4.868-3.919-12.201-15.109 24.654 5.31 2.023-1.706-18.649-23.327-3.35 2.592 12.01 15.109-24.4-5.437-2.213 1.58 18.775 23.58Zm0 0"/><path fill="#fff" d="M169.355 106.139c2.718 3.919 5.816 6.321 9.419 7.396 3.414.948 6.638.378 9.988-1.77 2.655-1.707 4.425-3.73 5.437-6.069.441-1.39.695-2.718.695-4.172a13 13 0 0 0-.189-2.15l-.19-.948-5.246-1.833.696 2.845c.378 1.706.441 3.224.064 4.614q-.662 2.371-3.034 3.793c-2.086 1.264-4.235 1.39-6.637.379-2.655-.948-4.678-2.718-6.575-5.753-1.833-2.655-2.465-5.436-2.212-8.218.315-2.276 1.327-4.046 3.034-5.247.948-.632 2.276-.948 3.793-.948 1.707.13 3.097.443 4.488 1.138l2.402 1.137-.378-6.89-1.264-.19c-2.086-.378-4.172-.315-6.322 0-1.77.442-3.54 1.264-5.373 2.466-2.086 1.455-3.54 3.034-4.425 4.804-.76 1.58-1.075 3.35-1.075 5.626v.065c0 1.833.253 3.604.822 5.31a21.2 21.2 0 0 0 2.087 4.615"/><path fill="none" stroke="#fff" stroke-linecap="round" stroke-linejoin="round" stroke-miterlimit="10" stroke-width="48.54962999999999" d="M169.355 106.139c2.718 3.919 5.816 6.321 9.419 7.396 3.414.948 6.638.38 9.988-1.77 2.655-1.707 4.425-3.73 5.436-6.069.443-1.39.696-2.718.696-4.172 0-.696-.063-1.39-.19-2.15l-.19-.948-5.246-1.833.695 2.845c.38 1.707.443 3.224.063 4.614q-.663 2.37-3.034 3.793c-2.086 1.265-4.236 1.391-6.638.38-2.655-.949-4.678-2.719-6.574-5.753-1.833-2.655-2.466-5.436-2.213-8.218.316-2.276 1.328-4.046 3.035-5.247.948-.632 2.275-.948 3.793-.948 1.706.126 3.097.442 4.488 1.138l2.402 1.138-.38-6.89-1.264-.19c-2.086-.38-4.172-.317-6.321 0-1.77.442-3.54 1.264-5.373 2.465-2.087 1.454-3.54 3.034-4.426 4.804-.758 1.58-1.074 3.35-1.074 5.627v.063c0 1.833.253 3.603.822 5.31a21.3 21.3 0 0 0 2.086 4.615m0 0"/><path fill="#fff" stroke="#fff" stroke-linecap="round" stroke-linejoin="round" stroke-miterlimit="10" stroke-width="48.54962999999999" d="m217.083 95.202-1.897-3.73-12.327 6.385-3.983-7.902 10.937-5.752-1.96-3.73-10.936 5.816-3.856-7.396 11.442-5.88-1.834-3.982-16.372 8.597 13.654 26.424zm17.953-7.459-4.362-12.327 9.735-3.477 4.425 12.327 5.247-1.707-9.988-28.13-5.184 1.832 4.046 11.695-9.609 3.477-4.298-11.695-5.184 1.77 9.988 28.068Zm0 0"/><path fill="#fff" d="m245.909 52.785 8.028 28.826 5.247-1.581-8.028-28.763zm0 0"/><path fill="none" stroke="#fff" stroke-linecap="round" stroke-linejoin="round" stroke-miterlimit="10" stroke-width="48.54962999999999" d="m259.184 80.03-8.028-28.763-5.247 1.518 8.028 28.826Zm0 0"/><path fill="#fff" d="M259.374 64.606c.948 4.678 2.844 8.155 5.626 10.367 2.845 2.023 6.132 2.719 9.925 1.96 2.339-.442 4.362-1.075 6.069-1.96 2.086-1.011 3.476-2.402 4.172-4.046l.19-.441-2.277-11.695-5.436 1.137 2.15 10.558s-.13.252-.823.695c-1.011.696-2.592 1.201-4.741 1.581q-2.655.569-5.12-1.327-3.32-2.655-4.363-8.344c-.695-3.287-.441-6.006.76-8.534 1.074-2.213 2.654-3.477 5.057-3.92 1.896-.441 3.603-.315 5.247.316 1.2.505 2.402 1.39 3.603 2.529l2.086 2.023 1.39-6.701-.948-.633a13.1 13.1 0 0 0-5.563-2.023c-2.086-.252-4.362-.13-6.764.379-3.92.759-6.89 2.844-8.85 6.385-1.77 3.54-2.213 7.332-1.39 11.694"/><path fill="none" stroke="#fff" stroke-linecap="round" stroke-linejoin="round" stroke-miterlimit="10" stroke-width="48.54962999999999" d="M259.374 64.606c.948 4.678 2.845 8.155 5.626 10.367 2.845 2.023 6.132 2.719 9.925 1.96 2.339-.443 4.362-1.075 6.069-1.96 2.086-1.011 3.476-2.402 4.172-4.046l.19-.442-2.276-11.695-5.437 1.138 2.15 10.557s-.127.253-.822.695c-1.012.696-2.592 1.201-4.741 1.58q-2.655.57-5.121-1.327-3.319-2.655-4.362-8.344c-.695-3.287-.442-6.006.759-8.534 1.074-2.213 2.655-3.477 5.057-3.92 1.896-.442 3.603-.316 5.247.316 1.201.506 2.402 1.391 3.603 2.529l2.086 2.023 1.391-6.701-.948-.632a13.1 13.1 0 0 0-5.563-2.023c-2.086-.253-4.362-.127-6.764.38-3.92.758-6.89 2.844-8.85 6.384-1.77 3.54-2.213 7.333-1.391 11.695m0 0"/><path fill="#fff" stroke="#fff" stroke-linecap="round" stroke-linejoin="round" stroke-miterlimit="10" stroke-width="48.54962999999999" d="m295.217 73.014-1.264-12.96 10.24-1.011 1.202 13.022 5.626-.569-2.908-29.648-5.5.57 1.138 12.516-10.177.885-1.328-12.454-5.437.57 2.782 29.837Zm0 0"/><path fill="#fff" d="M329.733 43.365c-1.644 1.39-2.592 3.414-2.782 5.88v.378c0 2.34 1.075 4.299 3.161 5.88 1.264 1.01 3.603 2.212 6.322 3.413.948.379 3.793 1.581 4.804 2.339 1.327.948 1.516 1.77 1.516 2.529-.13 1.77-.632 2.908-1.643 3.666-.57.505-1.833.696-3.414.633-1.96-.065-3.666-.759-5.12-1.897-1.012-.885-2.023-2.275-3.098-4.172l-1.896-3.477-2.086 7.965.441.633c1.075 1.327 2.213 2.34 3.414 3.098 1.96 1.2 4.362 1.896 7.207 2.023 3.35.19 6.132-.316 7.902-1.453 2.339-1.455 3.603-3.793 3.73-7.08l.064-.38c0-2.402-1.075-4.488-3.16-6.194-1.138-.886-2.909-1.834-6.26-3.414-3.033-1.264-4.298-2.086-4.804-2.465-1.327-.823-1.516-1.582-1.516-2.213v-.065c.065-1.327.505-2.275 1.516-2.844.696-.442 1.582-.633 2.782-.57 1.264 0 2.529.443 3.73 1.327.759.633 1.453 1.581 2.275 2.845l1.327 1.896 3.604-5.31-.885-.885c-1.39-1.453-2.719-2.402-4.11-3.034-1.39-.57-3.223-.949-5.562-1.075-3.098-.13-5.69.57-7.46 2.023"/><path fill="none" stroke="#fff" stroke-linecap="round" stroke-linejoin="round" stroke-miterlimit="10" stroke-width="48.54962999999999" d="M329.733 43.365c-1.644 1.391-2.592 3.414-2.782 5.88v.379c0 2.339 1.075 4.298 3.161 5.879 1.264 1.011 3.603 2.212 6.322 3.413.948.38 3.793 1.58 4.804 2.34 1.328.948 1.517 1.77 1.517 2.528-.126 1.77-.632 2.908-1.643 3.667-.57.505-1.834.695-3.414.632-1.96-.064-3.667-.759-5.12-1.897-1.012-.885-2.023-2.275-3.098-4.172l-1.896-3.477-2.087 7.965.443.633c1.075 1.327 2.212 2.339 3.414 3.097 1.96 1.201 4.361 1.897 7.206 2.023 3.35.19 6.132-.316 7.902-1.454 2.34-1.454 3.603-3.793 3.73-7.08l.063-.38c0-2.402-1.075-4.488-3.16-6.195-1.139-.885-2.909-1.833-6.26-3.413-3.033-1.265-4.298-2.086-4.803-2.466-1.328-.821-1.518-1.58-1.518-2.212v-.063c.064-1.328.506-2.276 1.518-2.845.695-.443 1.58-.632 2.781-.569 1.264 0 2.529.442 3.73 1.328.758.632 1.454 1.58 2.276 2.844l1.327 1.897 3.603-5.31-.885-.885c-1.39-1.454-2.718-2.403-4.109-3.035-1.39-.569-3.224-.948-5.563-1.074-3.097-.127-5.69.568-7.46 2.022Zm0 0"/><path fill="#fff" d="M355.715 48.36c-1.264 1.2-2.276 2.718-3.098 4.677-.633 1.454-1.075 3.098-1.327 4.805-.696 4.551-.065 8.534 2.023 11.695 1.896 2.908 4.93 4.867 8.597 5.436 3.287.379 5.942.065 8.155-1.011 1.707-.885 3.224-2.34 4.678-4.425l.57-.822-3.161-4.742-1.201 2.466c-.759 1.516-1.707 2.655-2.908 3.477-1.327.948-2.908 1.2-4.994.948-2.086-.316-3.793-1.644-5.12-4.172-1.264-2.34-1.644-5.247-1.138-8.534.442-3.098 1.707-5.626 3.92-7.586 1.833-1.644 3.603-2.34 5.689-2.023 1.137.19 2.212.759 3.477 1.96 1.2 1.011 2.086 2.275 2.718 3.54l1.074 2.339 4.11-5.247-.76-1.012c-1.58-1.896-3.097-3.16-4.74-3.982-1.834-.949-3.73-1.644-5.69-1.96-2.34-.379-4.425-.13-6.575.822a13.7 13.7 0 0 0-4.298 3.35"/><path fill="none" stroke="#fff" stroke-linecap="round" stroke-linejoin="round" stroke-miterlimit="10" stroke-width="48.54962999999999" d="M355.714 48.36c-1.264 1.2-2.275 2.718-3.097 4.677-.632 1.454-1.075 3.098-1.328 4.805-.695 4.551-.063 8.534 2.023 11.695 1.897 2.908 4.931 4.867 8.598 5.436 3.287.38 5.942.064 8.154-1.011 1.707-.885 3.224-2.34 4.678-4.425l.57-.822-3.161-4.741-1.202 2.465c-.758 1.517-1.706 2.655-2.907 3.477-1.328.948-2.908 1.201-4.995.948-2.086-.316-3.792-1.643-5.12-4.172-1.264-2.339-1.644-5.247-1.138-8.534.443-3.098 1.707-5.626 3.92-7.586 1.833-1.644 3.603-2.339 5.689-2.023 1.138.19 2.212.759 3.477 1.96 1.2 1.011 2.086 2.276 2.718 3.54l1.075 2.339 4.109-5.247-.759-1.011c-1.58-1.897-3.097-3.161-4.741-3.983-1.833-.948-3.73-1.644-5.69-1.96-2.338-.379-4.425-.126-6.574.822a13.7 13.7 0 0 0-4.299 3.35Zm0 0"/><path fill="#fff" stroke="#fff" stroke-linecap="round" stroke-linejoin="round" stroke-miterlimit="10" stroke-width="48.54962999999999" d="m380.748 77.944 3.287-12.706 9.988 2.465-3.16 12.77 5.373 1.39 7.27-28.952-5.247-1.454-3.224 12.137-9.988-2.591 3.034-12.011-5.31-1.391-7.333 28.953Zm0 0"/><path fill="#fff" d="M403.505 68.272c-1.453 3.857-1.58 7.523-.504 11.063 1.39 3.983 4.045 6.764 7.965 8.218 3.982 1.327 7.712.948 11.442-1.2 3.097-1.96 5.31-4.931 6.637-8.724.76-2.086 1.201-4.173 1.201-6.259a14.9 14.9 0 0 0-.759-4.741c-1.264-3.982-3.982-6.827-7.839-8.155-3.982-1.516-7.775-1.137-11.378 1.075-2.971 1.896-5.247 4.804-6.764 8.724m20.355 7.522c-1.075 2.971-2.655 5.184-4.804 6.701s-4.299 1.833-6.638 1.075c-2.339-.885-3.73-2.592-4.362-5.247a13.4 13.4 0 0 1-.315-2.782c0-1.706.315-3.413 1.011-5.31 1.075-2.97 2.655-5.183 4.678-6.764 2.276-1.58 4.425-1.96 6.764-1.074 2.276.759 3.667 2.465 4.362 5.183.633 2.466.379 5.31-.696 8.218"/><path fill="none" stroke="#fff" stroke-linecap="round" stroke-linejoin="round" stroke-miterlimit="10" stroke-width="48.54962999999999" d="M403.506 68.272c-1.454 3.857-1.58 7.523-.506 11.063 1.39 3.983 4.046 6.764 7.965 8.218 3.983 1.328 7.712.948 11.442-1.2 3.098-1.96 5.31-4.932 6.638-8.725.758-2.086 1.2-4.172 1.2-6.258q0-2.466-.758-4.741c-1.264-3.983-3.982-6.827-7.839-8.155-3.982-1.517-7.775-1.138-11.378 1.075-2.972 1.896-5.247 4.804-6.764 8.723m20.355 7.523c-1.075 2.971-2.655 5.184-4.804 6.7-2.15 1.518-4.3 1.834-6.638 1.076-2.34-.885-3.73-2.592-4.362-5.247a13.4 13.4 0 0 1-.316-2.782c0-1.707.316-3.413 1.011-5.31 1.075-2.971 2.655-5.184 4.678-6.764 2.276-1.58 4.425-1.96 6.764-1.075 2.276.759 3.667 2.466 4.362 5.184.632 2.465.38 5.31-.695 8.218m0 0"/><path fill="#fff" d="M432.016 79.02c-1.833 3.666-2.34 7.142-1.644 10.872.696 4.11 3.16 7.207 6.954 9.04 3.666 1.833 7.46 1.897 11.315.19 3.161-1.517 5.69-4.11 7.776-7.966 1.264-2.718 1.96-5.373 1.96-7.965 0-.948-.13-1.96-.316-2.971-.822-4.172-3.16-7.207-6.89-8.977-3.73-2.023-7.713-2.086-11.442-.19-3.35 1.644-5.943 4.3-7.713 7.966m17.195-4.046c2.276 1.201 3.54 2.971 3.856 5.69.065.443.13.948.13 1.39v.065c0 2.086-.633 4.298-1.834 6.637q-2.085 4.077-5.31 6.069c-2.528 1.327-4.74 1.455-6.89.378-2.213-1.137-3.477-2.97-3.793-5.626-.065-.568-.13-1.074-.13-1.643 0-2.15.57-4.236 1.77-6.448 1.264-2.719 3.098-4.805 5.437-6.132 2.276-1.327 4.615-1.455 6.764-.379"/><path fill="none" stroke="#fff" stroke-linecap="round" stroke-linejoin="round" stroke-miterlimit="10" stroke-width="48.54962999999999" d="M432.016 79.02c-1.833 3.666-2.34 7.142-1.644 10.872.696 4.11 3.16 7.207 6.954 9.04 3.666 1.833 7.46 1.896 11.315.19 3.161-1.518 5.69-4.11 7.776-7.966 1.264-2.718 1.96-5.373 1.96-7.965 0-.948-.127-1.96-.316-2.97-.822-4.173-3.161-7.207-6.89-8.977-3.73-2.023-7.713-2.087-11.443-.19-3.35 1.644-5.942 4.299-7.712 7.965Zm17.194-4.047c2.276 1.201 3.54 2.971 3.857 5.69.063.442.126.948.126 1.39v.064c0 2.086-.632 4.298-1.833 6.637q-2.087 4.078-5.31 6.069c-2.529 1.328-4.742 1.454-6.89.38-2.213-1.139-3.478-2.972-3.794-5.627-.063-.569-.126-1.075-.126-1.644 0-2.149.569-4.235 1.77-6.448 1.264-2.718 3.097-4.804 5.436-6.131 2.276-1.328 4.615-1.454 6.764-.38m0 0"/><path fill="#fff" stroke="#fff" stroke-linecap="round" stroke-linejoin="round" stroke-miterlimit="10" stroke-width="48.54962999999999" d="m466.658 115.368 2.276-3.477-11.126-7.08 13.528-21.683-4.615-2.908-15.93 25.223Zm15.488 11.695 8.534-10.367 9.23 7.585 2.78-3.097-9.418-7.712 5.057-6.132 9.672 8.028 2.718-3.287-13.907-11.695-18.902 23.2Zm0 0"/><path fill="#fff" d="M498.013 134.649c-.57 4.298.696 7.775 3.856 10.873 2.908 2.971 6.385 4.172 10.747 3.666 3.666-.443 7.017-2.212 9.798-5.12 2.908-2.908 4.552-6.132 4.93-9.862.13-.57.13-1.137.13-1.706 0-3.35-1.327-6.448-3.793-8.977-2.908-2.908-6.637-4.172-10.746-3.667-3.604.442-6.828 2.086-9.799 4.994-2.97 3.035-4.678 6.259-5.12 9.799m24.464-1.644c-.442 2.655-1.833 5.058-3.982 7.207-2.276 2.275-4.615 3.666-7.144 4.109-2.718.505-4.804-.065-6.51-1.77-1.454-1.453-2.15-3.035-2.15-4.994 0-.505.065-1.075.19-1.644.44-2.402 1.832-4.741 4.171-7.08 2.023-2.15 4.489-3.603 7.144-4.109 2.655-.57 4.804.065 6.51 1.77 1.708 1.833 2.277 3.983 1.77 6.511"/><path fill="none" stroke="#fff" stroke-linecap="round" stroke-linejoin="round" stroke-miterlimit="10" stroke-width="48.54962999999999" d="M498.013 134.649c-.57 4.298.695 7.775 3.856 10.873 2.908 2.971 6.385 4.172 10.747 3.666 3.666-.442 7.017-2.212 9.798-5.12 2.908-2.908 4.552-6.132 4.93-9.862.127-.569.127-1.138.127-1.707 0-3.35-1.327-6.447-3.793-8.976-2.907-2.908-6.637-4.172-10.746-3.667-3.604.443-6.828 2.086-9.799 4.994-2.97 3.035-4.678 6.259-5.12 9.799m24.464-1.644c-.442 2.655-1.833 5.057-3.982 7.207-2.276 2.276-4.615 3.666-7.144 4.109-2.718.506-4.804-.063-6.51-1.77-1.455-1.454-2.15-3.035-2.15-4.994 0-.506.063-1.075.19-1.644.442-2.402 1.833-4.741 4.172-7.08 2.023-2.15 4.488-3.603 7.143-4.109 2.655-.569 4.804.063 6.511 1.77 1.707 1.833 2.276 3.983 1.77 6.511m0 0"/><path fill="#fff" stroke="#fff" stroke-linecap="round" stroke-linejoin="round" stroke-miterlimit="10" stroke-width="48.54962999999999" d="m516.598 160.63 10.241-8.218 2.529 3.288-6.195 13.148 4.614 5.563 6.132-14.413a7.77 7.77 0 0 0 3.604 1.138c1.96.253 3.919-.253 5.5-1.643 1.96-1.391 3.034-3.35 3.16-5.69v-.569c0-2.339-.948-4.678-2.718-6.764l-7.08-8.913-23.264 18.775zm19.913-16.056 3.098 3.856c1.011 1.327 1.517 2.528 1.517 3.982-.126 1.138-.569 2.087-1.454 2.782-.885.759-1.707.948-2.845.822-1.327-.19-2.592-1.012-3.603-2.276l-3.098-3.92Zm24.591 34.326-21.999 13.149 2.845 4.678 21.999-13.086 4.804 8.028 3.667-2.149-12.327-20.672-3.92 1.96zm-11.505 32.24 12.01-5.69 4.49 9.293-12.012 5.69 2.466 4.93 26.93-12.643-2.403-4.994-11.189 5.247-4.488-9.293 11.189-5.436-2.34-4.931-26.866 12.643Zm14.603 35.148 3.919-1.644-4.615-12.896 8.282-3.034 4.298 11.568 4.046-1.39-4.425-11.569 7.775-2.908 4.426 12.264 3.982-1.454-6.258-17.448-27.942 10.368Zm0 0"/><path fill="#fff" d="M572.102 261.586c-2.023 2.781-2.655 6.195-1.897 9.988.505 2.402 1.138 4.425 2.023 6.069 1.011 1.96 2.466 3.413 4.046 4.109l.505.189 11.568-2.529-1.137-5.31-10.43 2.276s-.253-.13-.76-.822c-.696-.948-1.2-2.529-1.707-4.741-.378-1.834.065-3.477 1.327-5.247 1.833-2.15 4.615-3.603 8.471-4.425 2.971-.633 5.69-.379 8.281.696 2.276 1.137 3.604 2.718 4.046 4.994.379 1.96.316 3.666-.378 5.247-.505 1.39-1.264 2.591-2.403 3.73l-2.023 2.149 6.828 1.2.57-.948c1.137-1.896 1.833-3.73 2.086-5.69.064-.504.13-1.074.13-1.706 0-1.58-.253-3.287-.697-4.93-.822-3.92-2.97-6.891-6.51-8.788-3.73-1.833-7.524-2.276-11.696-1.264-4.615 1.012-8.028 2.908-10.24 5.753"/><path fill="none" stroke="#fff" stroke-linecap="round" stroke-linejoin="round" stroke-miterlimit="10" stroke-width="48.54962999999999" d="M572.102 261.586c-2.023 2.781-2.655 6.195-1.897 9.988.506 2.402 1.138 4.425 2.023 6.069 1.012 1.96 2.465 3.413 4.046 4.109l.506.19 11.568-2.53-1.138-5.31-10.43 2.276s-.253-.126-.759-.821c-.695-.949-1.201-2.53-1.707-4.742-.38-1.833.063-3.477 1.328-5.247 1.833-2.149 4.614-3.603 8.47-4.425 2.972-.632 5.69-.379 8.282.696 2.276 1.138 3.603 2.718 4.046 4.994.379 1.96.316 3.666-.38 5.247-.505 1.39-1.264 2.591-2.402 3.73l-2.023 2.149 6.828 1.2.568-.947c1.138-1.897 1.834-3.73 2.087-5.69a14 14 0 0 0 .126-1.707c0-1.58-.253-3.287-.695-4.93-.822-3.92-2.971-6.891-6.512-8.787-3.73-1.834-7.522-2.276-11.694-1.265-4.615 1.012-8.029 2.908-10.241 5.753m0 0"/><path fill="#fff" d="m573.682 287.378.76 5.563 29.458-3.983-.633-5.436zm0 0"/><path fill="none" stroke="#fff" stroke-linecap="round" stroke-linejoin="round" stroke-miterlimit="10" stroke-width="48.54962999999999" d="m574.44 292.94 29.46-3.982-.696-5.436-29.522 3.856Zm0 0"/><path fill="#fff" stroke="#fff" stroke-linecap="round" stroke-linejoin="round" stroke-miterlimit="10" stroke-width="48.54962999999999" d="m575.389 302.423 13.338-.948.822 11.884 4.362-.19-1.011-12.01 7.902-.632.948 12.516 4.235-.316-1.327-18.08-29.712 2.276Zm.885 21.81-.063 5.5 25.476.379-.127 9.419 4.236.126.379-24.275h-4.236l-.19 9.23Zm1.706 36.032 1.518-13.78 8.724.884-1.265 12.328 4.173.568 1.264-12.39 8.281.948-1.39 12.77 4.172.506 1.96-18.46-29.649-3.034-1.96 19.028Zm-6.574 11.695c-.695 3.604-.063 6.828 2.086 9.988 2.403 2.972 5.69 4.868 10.368 5.943 4.74.948 8.787.316 11.695-1.834 2.591-1.77 4.298-4.425 5.057-8.091l2.212-10.557-29.395-5.816Zm25.223 3.857c-.569 2.97-1.643 4.93-3.287 6.005-1.707 1.075-4.551 1.264-8.028.569-3.92-.759-6.575-2.023-8.029-3.793-1.138-1.264-1.707-2.718-1.707-4.615 0-.822.064-1.707.317-2.655l.758-3.54 20.861 4.236Zm0 0"/><path fill="#fff" d="M246.288 587.463c.76-2.34.442-4.678-1.39-7.207-1.453-1.644-3.16-3.224-5.12-4.804-1.897-1.517-3.414-2.782-4.046-3.667-.76-1.011-.949-1.96-.76-2.655.443-1.2 1.075-1.896 2.15-2.213.822-.252 1.77-.189 2.908.13 1.327.442 2.465 1.264 3.224 2.339.57.759 1.075 1.833 1.516 3.098l.696 2.212 4.931-3.983-.633-1.2c-.948-1.58-2.023-2.908-3.16-3.857-1.201-.948-2.845-1.77-4.931-2.528-2.908-1.138-5.5-1.138-7.966 0-2.022 1.011-3.476 2.592-4.109 4.804-.758 2.213-.378 4.425 1.39 6.954.949 1.327 2.782 2.971 5.121 4.741 2.592 2.086 3.604 3.287 3.92 3.73.632.696.885 1.327.885 1.96 0 .252 0 .505-.13.759-.378 1.2-1.074 2.718-2.339 3.16-.885.316-2.149.253-3.603-.189-1.77-.633-3.224-1.707-4.299-3.287-.759-1.264-1.453-2.908-2.022-4.931l-1.012-3.603-3.92 6.89.253.696c.633 1.707 1.516 3.035 2.465 3.856 1.517 1.834 3.604 3.161 6.322 4.046 3.224 1.075 5.88 1.264 8.028.696 1.897-.57 4.362-2.086 5.627-5.942"/><path fill="none" stroke="#fff" stroke-linecap="round" stroke-linejoin="round" stroke-miterlimit="10" stroke-width="48.54962999999999" d="M246.288 587.462c.759-2.338.443-4.677-1.39-7.206-1.455-1.644-3.161-3.224-5.121-4.804-1.896-1.518-3.414-2.782-4.046-3.667-.758-1.011-.948-1.96-.758-2.655.442-1.201 1.074-1.897 2.149-2.213.822-.252 1.77-.19 2.908.127 1.327.442 2.465 1.264 3.224 2.339.569.758 1.075 1.833 1.517 3.097l.695 2.213 4.931-3.983-.632-1.2c-.948-1.581-2.023-2.909-3.16-3.857-1.202-.948-2.845-1.77-4.932-2.529-2.907-1.137-5.5-1.137-7.965 0-2.023 1.012-3.477 2.592-4.109 4.805-.758 2.212-.379 4.425 1.391 6.954.948 1.327 2.781 2.97 5.12 4.74 2.592 2.087 3.604 3.288 3.92 3.73.632.696.885 1.328.885 1.96 0 .253 0 .506-.127.759-.379 1.2-1.074 2.718-2.339 3.16-.885.317-2.149.253-3.603-.19-1.77-.631-3.224-1.706-4.299-3.286-.758-1.265-1.453-2.908-2.022-4.931l-1.012-3.603-3.92 6.89.254.695c.632 1.707 1.517 3.035 2.465 3.857 1.517 1.833 3.603 3.16 6.322 4.045 3.224 1.075 5.879 1.265 8.028.696 1.896-.57 4.362-2.086 5.626-5.943m0 0"/><path fill="#fff" d="m247.047 596.502 5.247 1.455 7.775-28.763-5.31-1.453zm0 0"/><path fill="none" stroke="#fff" stroke-linecap="round" stroke-linejoin="round" stroke-miterlimit="10" stroke-width="48.54962999999999" d="m254.76 567.74-7.713 28.762 5.247 1.454 7.775-28.763Zm0 0"/><path fill="#fff" stroke="#fff" stroke-linecap="round" stroke-linejoin="round" stroke-miterlimit="10" stroke-width="48.54962999999999" d="m280.361 573.555-3.793 19.091L265 570.268l-2.718-.57-6.006 29.586 4.11.758 3.919-19.028 11.315 21.683.696.76 2.275.315 5.816-29.142zm32.936 29.079.19-8.85 12.453.253V589.8l-12.39-.19.19-8.28 13.085.252v-4.235l-18.522-.38-.063 4.3-.443-.443c-1.707-1.897-3.287-3.16-4.804-3.983-1.58-.758-3.604-1.264-5.88-1.517-2.149-.253-4.298.063-6.384.885q-2.56 1.233-4.362 3.793c-1.201 1.454-2.15 3.098-2.718 4.804-.57 1.454-1.138 2.972-1.265 4.742-.569 4.614.443 8.597 2.655 11.631 2.086 2.845 4.931 4.489 8.85 4.868 3.035.316 5.753-.127 7.966-1.264 1.77-.949 3.224-2.403 4.425-4.552l.442-.822-2.97-4.614-1.202 2.528c-.822 1.644-1.643 2.782-2.781 3.54-1.391.948-2.972 1.265-4.931 1.075-2.276-.253-3.983-1.454-5.374-3.73-1.327-2.592-1.706-5.373-1.453-8.534.379-3.35 1.453-5.942 3.476-7.775 1.834-1.834 3.604-2.592 5.563-2.34 1.201.127 2.466.696 3.604 1.644 1.2 1.138 2.149 2.34 2.844 3.73l1.138 2.276 3.604-4.805-.506 24.338 19.217.506.19-4.299zm0 0"/><path fill="#fff" d="m340.922 580.572.57 5.057 4.361-3.413 2.655 23.453 5.437-.57-3.35-31.545zm0 0"/><path fill="none" stroke="#fff" stroke-linecap="round" stroke-linejoin="round" stroke-miterlimit="10" stroke-width="48.54962999999999" d="m340.922 580.572.569 5.057 4.299-3.413 2.718 23.453 5.436-.57-3.35-31.48Zm0 0"/><path fill="#fff" d="M378.409 591.319c0-1.834-.253-3.793-.696-6.132-1.011-5.31-2.718-8.85-5.12-10.873-1.96-1.644-4.3-2.276-6.954-1.77-2.529.443-4.362 1.643-5.69 3.603-1.453 2.212-1.833 5.31-1.2 8.787.441 2.465 1.39 4.425 3.097 6.132 1.707 1.516 3.983 2.15 6.511 1.643a9.1 9.1 0 0 0 4.425-2.149c.253 2.592.13 4.678-.315 6.006-.505 1.327-1.517 2.149-2.845 2.402-.57.13-1.138-.065-1.77-.444-.822-.568-1.581-1.39-2.276-2.402l-1.643-2.528-2.655 6.321.822.76q1.612 1.516 3.224 2.085c1.39.57 2.97.76 4.678.442 3.35-.696 5.879-2.592 7.08-5.373.885-1.833 1.327-3.983 1.327-6.511m-14.603-10.43c0-1.075.19-2.024.505-2.72.253-.632.696-1.263 2.086-1.516.885-.129 1.581 0 2.276.57 1.327 1.012 2.402 3.477 3.224 7.46 0 .57-.316 1.137-1.012 1.896-.948 1.075-1.706 1.644-2.655 1.833-.632.13-1.453.13-2.528-1.074-.76-.822-1.264-2.023-1.581-3.414-.19-1.138-.316-2.15-.316-3.034"/><path fill="none" stroke="#fff" stroke-linecap="round" stroke-linejoin="round" stroke-miterlimit="10" stroke-width="48.54962999999999" d="M378.409 591.319c0-1.834-.253-3.793-.695-6.132-1.012-5.31-2.719-8.85-5.12-10.873-1.96-1.644-4.3-2.276-6.955-1.77-2.528.442-4.362 1.643-5.69 3.603-1.453 2.212-1.832 5.31-1.2 8.787.442 2.465 1.39 4.425 3.097 6.132 1.707 1.517 3.983 2.15 6.512 1.643a9.1 9.1 0 0 0 4.425-2.149c.253 2.592.126 4.678-.316 6.006-.506 1.327-1.518 2.149-2.845 2.402-.569.126-1.138-.063-1.77-.443-.822-.569-1.58-1.39-2.276-2.402l-1.643-2.529-2.656 6.322.822.759q1.613 1.516 3.224 2.086c1.391.569 2.971.758 4.678.442 3.35-.695 5.88-2.592 7.08-5.373.885-1.833 1.328-3.983 1.328-6.511m-14.603-10.43c0-1.076.19-2.024.506-2.72.253-.631.695-1.264 2.086-1.516.885-.127 1.58 0 2.276.569 1.327 1.011 2.402 3.476 3.224 7.459 0 .569-.316 1.138-1.012 1.896-.948 1.075-1.707 1.644-2.655 1.834-.632.126-1.454.126-2.528-1.075-.759-.822-1.265-2.023-1.58-3.414-.19-1.137-.317-2.149-.317-3.034zm0 0"/><path fill="#fff" d="M399.144 586.704c-.76-2.086-1.77-3.54-3.098-4.615-.885-.696-1.96-1.2-3.287-1.644.505-.632.822-1.327 1.138-2.022a7.95 7.95 0 0 0 .315-5.12c-.633-2.466-1.896-4.173-3.73-4.995-1.833-.822-3.982-.885-6.195-.252-2.781.759-4.678 2.275-5.626 4.425-.759 1.77-.822 3.603-.316 5.563.57 1.833 1.644 3.477 3.161 4.614.57.38 1.201.76 1.897 1.012-1.075 1.264-1.77 2.528-2.086 3.73-.379 1.516-.316 3.224.189 4.93.759 2.719 2.276 4.615 4.299 5.374 1.833.948 4.172 1.074 6.827.315 2.529-.885 4.362-2.212 5.436-3.92 1.012-1.263 1.517-2.78 1.517-4.487 0-.886-.13-1.77-.442-2.908m-7.207-.633c1.138.633 1.77 1.453 2.086 2.592.38 1.453.38 2.465 0 3.35-.378.822-1.263 1.39-2.591 1.77-1.075.316-1.897.253-2.655-.13-.76-.441-1.39-1.39-1.77-2.844a6.5 6.5 0 0 1-.38-2.213c0-.504.066-1.011.19-1.453.19-.885.505-1.644 1.012-2.276 2.276.444 3.476.949 4.109 1.201m-6.828-7.775c-1.074-.568-1.77-1.264-2.023-2.34-.315-1.074-.252-1.833.19-2.528.315-.57 1.011-.948 2.023-1.264 1.643-.443 2.276-.065 2.592.13.441.252.948.759 1.327 2.275.378 1.264.378 2.086 0 3.098-.19.759-.505 1.327-1.012 1.77-1.327-.253-2.276-.633-3.097-1.138"/><path fill="none" stroke="#fff" stroke-linecap="round" stroke-linejoin="round" stroke-miterlimit="10" stroke-width="48.54962999999999" d="M399.144 586.704c-.759-2.086-1.77-3.54-3.098-4.615-.885-.695-1.96-1.2-3.287-1.643.506-.633.822-1.328 1.138-2.023a7.96 7.96 0 0 0 .316-5.12c-.632-2.466-1.897-4.173-3.73-4.995s-3.983-.885-6.195-.253c-2.782.759-4.678 2.276-5.626 4.425-.759 1.77-.822 3.604-.316 5.563.569 1.834 1.643 3.477 3.16 4.615.57.38 1.202.759 1.897 1.012-1.075 1.264-1.77 2.528-2.086 3.73-.38 1.516-.316 3.223.19 4.93.758 2.718 2.275 4.615 4.298 5.373 1.833.949 4.172 1.075 6.827.317 2.529-.886 4.362-2.213 5.437-3.92 1.011-1.264 1.517-2.781 1.517-4.488 0-.885-.126-1.77-.442-2.908m-7.207-.632c1.138.632 1.77 1.454 2.086 2.592.38 1.454.38 2.465 0 3.35-.38.822-1.264 1.39-2.592 1.77-1.074.316-1.896.253-2.655-.126-.758-.443-1.39-1.391-1.77-2.845a6.5 6.5 0 0 1-.38-2.213c0-.505.064-1.011.19-1.454.19-.885.506-1.643 1.012-2.275 2.276.442 3.477.948 4.109 1.2zm-6.827-7.776c-1.075-.569-1.77-1.264-2.023-2.339-.316-1.074-.253-1.833.19-2.528.316-.57 1.01-.949 2.022-1.265 1.644-.442 2.276-.063 2.592.127.443.253.948.758 1.328 2.276.38 1.264.38 2.086 0 3.097-.19.759-.506 1.328-1.012 1.77-1.327-.253-2.275-.632-3.097-1.138m0 0"/><path fill="#fff" d="M397.374 565.97c-1.201 1.706-1.582 3.602-1.138 5.625l.19.696 5.941 3.161-.504.19 1.327 4.045 3.666-1.264c1.581-.57 2.908-.57 4.11 0 1.263.633 2.085 1.581 2.528 2.908.57 1.707.633 3.035.13 4.11-.443.884-1.39 1.643-2.972 2.275-.505.19-1.327.443-2.528-.442-.57-.379-1.517-1.138-2.782-2.781l-2.213-2.971-1.327 7.965.57.57c1.138 1.263 2.655 2.086 4.235 2.338 1.644.253 3.477.065 5.563-.695 3.098-1.201 5.247-2.845 6.385-4.931a7.5 7.5 0 0 0 .885-3.54c0-1.138-.252-2.34-.695-3.604-.823-2.212-2.15-3.856-4.11-4.93a10.3 10.3 0 0 0-2.338-.822c.189-.316.378-.696.57-1.012.948-1.96 1.01-3.92.315-5.942-.822-2.276-2.213-3.856-4.11-4.868-1.833-.822-4.045-.822-6.7.13-2.34 1.011-3.92 2.212-4.994 3.793m4.425 6.195c-.379-1.327-.442-2.466-.253-3.35.253-1.328.886-2.024 2.023-2.466.822-.252 1.897-.505 2.719 0 .504.316 1.137 1.011 1.643 2.402.57 1.581.505 2.845 0 3.73s-1.453 1.58-2.781 2.086l-2.529.822zm0 0"/><path fill="none" stroke="#fff" stroke-linecap="round" stroke-linejoin="round" stroke-miterlimit="10" stroke-width="48.54962999999999" d="M397.374 565.97c-1.202 1.706-1.58 3.602-1.138 5.625l.19.696 5.942 3.16-.506.19 1.327 4.046 3.667-1.264c1.58-.57 2.908-.57 4.109 0 1.264.632 2.086 1.58 2.529 2.908.569 1.706.632 3.034.126 4.109-.443.885-1.39 1.643-2.971 2.275-.506.19-1.328.443-2.529-.442-.569-.38-1.517-1.138-2.781-2.782l-2.213-2.97-1.327 7.964.569.57c1.137 1.264 2.655 2.085 4.235 2.338 1.644.253 3.477.064 5.563-.695 3.098-1.201 5.247-2.845 6.385-4.93a7.53 7.53 0 0 0 .885-3.541c0-1.138-.253-2.339-.696-3.603-.821-2.213-2.149-3.856-4.109-4.931a10.3 10.3 0 0 0-2.339-.822c.19-.316.38-.695.57-1.011.948-1.96 1.01-3.92.315-5.943-.821-2.275-2.212-3.856-4.109-4.867-1.833-.822-4.045-.822-6.7.126-2.34 1.012-3.92 2.213-4.994 3.793Zm4.425 6.194c-.38-1.327-.443-2.465-.253-3.35.253-1.328.885-2.023 2.023-2.466.822-.252 1.896-.505 2.718 0 .506.317 1.138 1.012 1.644 2.403.569 1.58.505 2.844 0 3.73-.506.884-1.454 1.58-2.782 2.086l-2.529.821zm0 0"/><path fill="#fff" d="M622.737 323.474c0 165.246-133.89 299.263-299.262 299.263-165.183 0-299.2-134.017-299.2-299.263 0-165.372 134.017-299.2 299.2-299.2 165.372 0 299.262 133.828 299.262 299.2"/><path fill="none" stroke="#333b9b" stroke-width="14.322140849999998" d="M622.737 323.474c0 165.246-133.89 299.263-299.263 299.263-165.182 0-299.2-134.017-299.2-299.263 0-165.372 134.018-299.2 299.2-299.2 165.373 0 299.263 133.828 299.263 299.2zm0 0"/><path fill="#fff" d="M622.737 323.474c0 165.246-133.89 299.263-299.262 299.263-165.183 0-299.2-134.017-299.2-299.263 0-165.372 134.017-299.2 299.2-299.2 165.372 0 299.262 133.828 299.262 299.2"/><path fill="#333b9b" d="M614.077 323.474c0 160.505-130.098 290.602-290.602 290.602-160.315 0-290.54-130.097-290.54-290.602S163.16 32.872 323.475 32.872c160.504 0 290.602 130.097 290.602 290.602"/><path fill="#fff" d="M560.976 323.474c0 131.11-106.266 237.311-237.501 237.311-131.047 0-237.312-106.202-237.312-237.311 0-131.046 106.265-237.501 237.312-237.501 131.235 0 237.5 106.455 237.5 237.501"/><path fill="#aae4fa" d="M231.496 171.377h89.956l89.703-.065s48.928 6.701 83.444 42.734c38.562 40.585 65.428 129.908-1.264 201.595-17.194 18.396-41.659 28.51-74.53 40.648H228.777c-35.211-12.138-61.382-22.252-79.715-40.648-71.307-71.687-42.607-161.01-1.264-201.595 36.728-36.033 83.697-42.67 83.697-42.67"/><path fill="#aae4fa" d="M448.641 235.54s100.766 130.352-52.468 219.739M259.69 170.176s-146.597 50.51-95.962 208.738"/><path fill="#211f1f" d="M230.547 164.613c-1.96.316-49.624 7.333-87.553 44.567-21.367 20.988-44.251 60.055-44.251 106.834 0 38.436 15.74 74.532 45.452 104.496 19.66 19.66 47.728 30.343 82.37 42.228l192.239.379 2.339-.442c32.43-11.885 58.727-22.568 77.186-42.355 27.815-29.9 42.48-65.934 42.48-104.305 0-46.59-21.303-85.658-41.279-106.645-35.717-37.424-85.341-44.567-88.375-44.883zm259.058 54.176c18.206 19.091 37.55 54.618 37.55 97.225 0 34.832-13.401 67.641-38.814 94.95-16.057 17.195-40.205 27.183-69.98 38.183 37.55-26.361 60.245-57.906 67.325-94.065 1.643-8.534 2.339-16.816 2.339-24.907 0-54.113-32.43-96.783-34.01-98.806l-10.81 8.407c.442.505 40.584 53.354 29.016 112.65-7.333 37.867-34.137 70.486-79.462 96.91l.065.13H229.917c-32.43-11.19-58.664-21.24-75.985-38.625-27.183-27.309-41.533-60.118-41.533-94.823 0-42.481 20.735-78.008 40.205-97.036 27.689-27.246 61.952-36.982 74.215-39.763-41.47 25.792-106.455 86.416-69.6 201.784l13.022-4.172c-43.871-137.241 64.607-189.268 87.617-198.623l152.413-.13c.442.065 46.906 6.764 79.336 40.711"/><path fill="#e3b183" d="M227.26 370.317h183.452l38.878-21.114-38.878 65.365-210.571-.316zm0 0"/><path fill="#211f1f" d="m468.175 331.25-53.607 90.145-226.691-.316 35.59-57.59h185.475zm-61.382 76.49 24.148-40.647-18.522 10.051H231.053l-18.712 30.28zm-162.148-99.754-20.862 3.098v-45.895h-7.27v46.4l-12.263 1.138 1.96 12.77 38.435-10.368v35.022h7.143v-61.825h8.155v-7.523h-8.155v-55.82h-7.143zm0 0"/><path fill="#211f1f" d="M230.105 288.642c-.19 2.718-.505 4.93-.948 6.89l-.19.633 2.972 4.615 1.263-2.402c1.201-2.276 2.213-5.816 2.972-10.494 1.011-5.12 1.58-9.988 1.58-14.476V232.38h-29.71v7.523h22.568V276c0 5.31-.19 9.545-.505 12.643m64.035 5.057c2.34-3.857 3.54-8.661 3.54-14.287 0-5.69-1.2-10.494-3.54-14.287-2.908-4.678-6.637-6.89-11.505-6.89-4.867 0-8.787 2.402-11.442 6.89-2.339 3.856-3.54 8.66-3.54 14.287 0 5.626 1.2 10.43 3.54 14.286 2.718 4.552 6.701 7.017 11.442 7.017 4.678 0 8.534-2.339 11.505-7.017m-19.533-14.286c0-4.299.759-7.902 2.15-10.684 2.148-3.92 4.361-4.362 5.878-4.362 1.581 0 3.92.442 5.88 4.299 1.452 2.971 2.275 6.7 2.275 10.747 0 4.045-.759 7.522-2.276 10.683-2.023 3.856-4.298 4.362-5.879 4.362-1.453 0-3.666-.505-5.816-4.362-1.453-2.908-2.212-6.448-2.212-10.683m-9.04-28.005h34.579v-7.649h-34.58zm38.878-26.424v73.204h7.333v-29.143h8.154v-7.522h-8.154v-36.539zm0 91.283v12.138c0 3.92-.13 7.649-.57 11.315-.252 3.224-.759 5.753-1.075 7.397l-.189.759 3.098 3.92 1.2-2.087c1.327-2.402 2.34-5.563 3.288-8.66 1.074-4.363 1.58-8.471 1.58-12.517v-19.787H270.31v7.523zm-31.545-80.979h19.597v-7.712h-19.597zm91.536 43.682v26.93h7.144v-80.853h-7.144v20.925h-9.166c-.57-2.592-1.264-4.994-2.15-7.207-3.413-8.028-8.091-9.672-11.315-9.672-4.868 0-8.787 3.224-11.568 9.672-2.213 5.373-3.35 12.137-3.35 20.103 0 7.965 1.137 14.792 3.35 20.165 2.781 6.638 6.574 9.862 11.568 9.862 3.35 0 8.028-1.77 11.316-9.988.441-1.2.885-2.402 1.264-3.73v3.793zm0-7.396h-9.166c.822-3.92 1.2-8.218 1.2-12.833 0-1.77 0-3.477-.129-5.12h8.092zm-28.384 4.235c-1.516-5.057-2.275-10.81-2.275-17.068s.759-12.074 2.275-16.689c2.276-6.827 4.931-6.827 5.816-6.827 2.592 0 4.362 3.73 5.374 6.827q2.274 6.543 2.275 16.69c0 6.7-.759 12.39-2.275 17.004-.886 2.655-2.655 7.017-5.374 7.017-2.339 0-4.298-2.339-5.816-6.954m-4.424 50.446c0 6.006 1.706 10.874 5.246 14.92 3.92 4.298 8.977 6.384 15.488 6.384 6.132 0 11-2.086 14.856-6.448 3.35-3.982 4.994-8.85 4.994-14.856 0-6.321-1.581-11.505-4.931-15.803-3.856-4.173-8.724-6.196-14.919-6.196-6.574 0-11.632 2.023-15.551 6.259-3.477 4.235-5.184 9.356-5.184 15.74m10.81 10.81c-2.465-2.908-3.603-6.448-3.603-11 0-4.488 1.2-8.09 3.666-11.062q3.604-4.362 9.862-4.362c3.983 0 6.954 1.39 9.356 4.425 2.339 2.719 3.414 6.322 3.414 11 0 4.551-1.075 8.091-3.477 11-2.34 2.844-5.374 4.171-9.293 4.171-4.299 0-7.523-1.327-9.925-4.172m77.439-57.21v-53.227h-7.017V307.1c-1.39-5.31-3.413-11.885-5.942-19.47-2.781-8.345-4.678-13.655-6.258-17.7.505-4.742.948-9.61 1.39-14.92l.065-1.706c.315-4.046.57-7.586.696-10.747h8.723v-7.586h-24.78v7.586h8.85c-.442 13.275-1.77 26.803-3.92 40.268-2.085 12.896-4.804 24.275-8.091 33.884l-.19.633 2.53 5.816 1.453-3.161c2.338-4.931 4.614-11.38 6.764-19.344 1.77-6.385 3.287-13.023 4.614-19.787a826 826 0 0 1 3.414 13.528 324 324 0 0 1 4.741 21.367l.822 4.552 5.12-9.988v34.768h7.018v-57.59h4.362v62.648h7.27V224.985h-7.27v54.87zm0 0"/><path fill="#fff" d="M79.525 380.62c-.505-2.338-1.2-4.298-2.212-6.068-1.138-2.086-2.529-3.413-4.172-4.046l-.442-.129-11.569 2.655 1.264 5.31 10.494-2.465c.065.064.316.252.696.885.696.885 1.264 2.402 1.833 4.678.379 1.833-.065 3.54-1.2 5.183-1.707 2.213-4.426 3.73-8.219 4.615-3.224.76-6.005.57-8.47-.505-2.34-1.011-3.667-2.592-4.173-4.804-.442-2.023-.442-3.73.19-5.31.504-1.39 1.263-2.655 2.338-3.73l2.087-2.15-6.89-1.2-.506.948c-1.137 1.834-1.707 3.667-1.96 5.816-.129 1.96.065 4.236.696 6.764.822 3.793 3.098 6.701 6.575 8.408 3.603 1.833 7.522 2.15 11.821 1.075 4.741-1.138 8.155-3.161 10.115-5.943 1.327-1.833 2.086-4.172 2.086-6.637 0-1.075-.13-2.276-.379-3.35m-4.87-21.998-.633-5.437-11.316 1.454-19.533-7.966.696 5.247 13.717 5.374-11.884 8.976.885 7.333 16.69-13.465zM72.13 324.17l-4.3.189.633 13.78-8.85.316-.696-12.39-4.109.19.505 12.39-8.155.378-.505-12.96-4.299.13.823 18.523 29.71-1.327zm1.137-14.856v-1.012c0-3.73-1.516-7.017-4.299-9.419-2.781-2.529-6.258-3.92-10.304-4.109-4.172-.252-7.712.696-10.81 2.908q-5.12 3.508-5.5 9.862l-.064.822c0 3.856 1.516 7.27 4.425 9.735 2.908 2.339 6.321 3.603 10.304 3.856 4.109.19 7.649-.696 10.747-2.718 3.35-2.276 5.247-5.69 5.5-9.925m-26.74-1.138.064-.378c.13-2.529 1.264-4.3 3.73-5.69 2.275-1.327 4.867-1.896 8.028-1.643 3.098.129 5.563.948 7.839 2.528 1.896 1.455 2.908 3.414 2.908 6.006v.064c-.19 2.466-1.39 4.362-3.54 5.69-2.34 1.327-4.994 1.833-8.218 1.707-3.098-.19-5.69-1.012-7.713-2.466-2.086-1.706-3.097-3.603-3.097-5.815m8.976-22.002 21.24-12.011.697-.379.189-2.718-29.269-4.805-1.074 4.11 19.217 3.16-21.81 12.327-.569 2.718 29.712 5.058.632-4.173zm25.413-41.786-11.379-3.16-1.516 5.31 10.367 2.718s.13.252.19 1.137c.189 1.201-.13 2.908-.696 4.995-.442 1.833-1.581 3.097-3.414 3.982-2.592 1.138-5.626 1.2-9.545.19-3.224-.886-5.437-2.34-7.144-4.615-1.516-2.023-2.023-3.983-1.327-6.322.442-1.833 1.39-3.287 2.845-4.425.948-.822 2.212-1.516 3.793-2.15l2.528-1.01-5.183-4.3-.949.57c-1.77 1.075-3.35 2.592-4.488 4.172-1.138 1.707-2.023 3.793-2.655 6.195-1.075 3.92-.505 7.334 1.77 10.874 2.15 3.034 5.373 5.183 9.672 6.384 4.867 1.264 8.597 1.138 11.948-.378 3.097-1.454 5.183-4.172 6.195-8.029.633-2.212.948-4.298.948-6.195 0-2.528-.505-4.362-1.643-5.626zm2.592-6.258c3.287-1.138 5.69-3.604 7.08-7.333.948-2.466 1.516-4.362 1.707-6.006.065-.568.065-1.011.065-1.516q0-2.75-1.327-4.362l-.19-.315-11.126-4.426-1.96 5.247 9.989 3.856s.129.19.129.949c-.065 1.327-.442 2.908-1.2 4.93-.697 1.77-2.024 3.035-3.857 3.73-2.718.885-5.753.57-9.482-.822-3.035-1.327-5.12-2.971-6.575-5.31-1.327-2.086-1.58-4.362-.759-6.448.76-1.77 1.897-3.287 3.224-4.299 1.201-.759 2.529-1.264 4.046-1.58l2.908-.569-4.994-4.994-1.011.505c-1.897.948-3.477 2.15-4.615 3.54-1.39 1.453-2.529 3.414-3.54 6.006-1.39 3.603-1.201 7.396.696 10.936 2.149 3.54 5.12 6.005 8.913 7.46 4.615 1.77 8.534 2.022 11.885.821m15.419-27.246-26.93-13.149-2.34 5.057 26.74 12.896zm8.281-17.827c2.086-1.075 3.793-2.718 5.373-5.184 1.707-2.844 2.529-5.183 2.529-7.333v-.252c-.065-2.718-1.581-4.994-4.299-6.89-2.086-1.39-4.552-1.517-7.207-.442-1.39.505-3.034 1.707-5.879 3.793-2.212 1.58-3.73 2.591-4.551 2.97-1.516.634-2.34.38-2.908 0-1.39-.884-1.581-1.77-1.644-2.654 0-.886.253-1.77.886-2.719.632-1.011 1.643-1.833 3.034-2.402 1.011-.378 2.086-.57 3.413-.633l2.276-.129-2.528-5.942-1.327.315c-1.834.505-3.414 1.201-4.552 2.213-1.39.948-2.592 2.276-3.73 4.172-1.706 2.592-2.339 5.12-1.96 7.523.38 2.149 1.582 3.919 3.667 5.247s4.488 1.453 7.08.315c1.264-.505 3.035-1.643 5.943-3.73 2.023-1.516 3.54-2.465 4.298-2.844 2.023-.822 2.782-.316 3.098-.13 1.453.949 2.212 1.96 2.339 3.477 0 .822-.379 1.897-1.075 3.034-1.011 1.707-2.402 2.782-4.298 3.414-1.201.442-2.908.633-5.058.633l-3.793-.065 5.627 5.816.822-.13c1.77-.252 3.224-.695 4.425-1.453m11.315-21.04c3.54-.253 6.637-1.897 8.913-4.931 1.896-2.53 2.97-4.995 3.097-7.586v-.253c0-2.023-.505-3.856-1.516-5.816l-.442-.822h-5.564l1.516 2.403c.948 1.454 1.39 2.844 1.581 4.488q0 2.465-1.707 4.551c-1.39 1.77-3.413 2.592-6.068 2.403-2.782-.19-5.563-1.264-8.029-3.161-2.592-1.96-4.172-4.425-4.804-7.144-.505-2.402-.13-4.425 1.011-5.815.885-1.012 2.023-1.707 3.54-2.15 1.39-.505 2.908-.632 4.615-.505l2.592.13-2.718-6.322-1.264.316c-2.403.505-4.3 1.2-5.753 2.086-1.707 1.011-3.287 2.402-4.615 4.046-1.39 1.96-2.15 3.793-2.402 5.942-.19 1.77 0 3.73.633 5.563.57 1.833 1.453 3.414 2.592 4.994 1.137 1.455 2.465 2.592 3.476 3.477 3.73 3.034 7.523 4.425 11.316 4.109m21.556-20.739-21.873-20.039-3.73 4.046 22 20.292zm16.436-16.183-2.908-3.097-9.862 9.609-6.195-6.512 8.914-8.534-2.908-3.034-8.85 8.597-5.753-5.942 9.293-8.977-2.908-3.034-13.275 12.77 20.671 21.556zm4.868-3.919-12.201-15.109 24.654 5.31 2.023-1.706-18.649-23.327-3.35 2.592 12.01 15.108-24.4-5.436-2.213 1.581 18.775 23.58zm7.965-25.033c2.718 3.919 5.816 6.321 9.419 7.396 3.414.948 6.638.378 9.988-1.77 2.655-1.707 4.425-3.73 5.437-6.069.441-1.39.695-2.718.695-4.172a13 13 0 0 0-.189-2.15l-.19-.948-5.246-1.833.696 2.845c.378 1.706.441 3.224.064 4.614q-.662 2.371-3.034 3.793c-2.086 1.264-4.235 1.39-6.637.379-2.655-.948-4.678-2.718-6.575-5.753-1.833-2.655-2.465-5.436-2.212-8.218.315-2.276 1.327-4.046 3.034-5.247.948-.632 2.276-.948 3.793-.948 1.707.13 3.097.443 4.488 1.138l2.402 1.137-.378-6.89-1.264-.19c-2.086-.378-4.172-.315-6.322 0-1.77.442-3.54 1.264-5.373 2.466-2.086 1.455-3.54 3.034-4.425 4.804-.76 1.58-1.075 3.35-1.075 5.626v.065c0 1.833.253 3.604.822 5.31a21.2 21.2 0 0 0 2.087 4.615m47.723-10.937-1.897-3.73-12.327 6.385-3.983-7.902 10.937-5.752-1.96-3.73-10.936 5.816-3.856-7.396 11.442-5.88-1.834-3.982-16.372 8.597 13.654 26.424zm17.953-7.459-4.362-12.327 9.735-3.477 4.425 12.327 5.247-1.707-9.988-28.13-5.184 1.832 4.046 11.695-9.609 3.477-4.298-11.695-5.184 1.77 9.988 28.068zm10.873-34.958 8.028 28.826 5.247-1.581-8.028-28.763zm13.465 11.821c.948 4.678 2.844 8.155 5.626 10.367 2.845 2.023 6.132 2.719 9.925 1.96 2.339-.442 4.362-1.075 6.069-1.96 2.086-1.011 3.476-2.402 4.172-4.046l.19-.441-2.277-11.695-5.436 1.137 2.15 10.558s-.13.252-.823.695c-1.011.696-2.592 1.201-4.741 1.581q-2.655.569-5.12-1.327-3.32-2.655-4.363-8.344c-.695-3.287-.441-6.006.76-8.534 1.074-2.213 2.654-3.477 5.057-3.92 1.896-.441 3.603-.315 5.247.316 1.2.505 2.402 1.39 3.603 2.529l2.086 2.023 1.39-6.701-.948-.633a13.1 13.1 0 0 0-5.563-2.023c-2.086-.252-4.362-.13-6.764.379-3.92.759-6.89 2.844-8.85 6.385-1.77 3.54-2.213 7.332-1.39 11.694m35.843 8.408-1.264-12.96 10.241-1.011 1.2 13.022 5.627-.568-2.908-29.648-5.5.57 1.138 12.516-10.178.886-1.327-12.454-5.436.57 2.781 29.837zm34.516-29.649c-1.644 1.39-2.592 3.414-2.782 5.88v.378c0 2.34 1.075 4.299 3.161 5.88 1.264 1.01 3.603 2.212 6.322 3.413.948.379 3.793 1.581 4.804 2.339 1.327.948 1.516 1.77 1.516 2.529-.13 1.77-.632 2.908-1.643 3.666-.57.505-1.833.696-3.414.633-1.96-.065-3.666-.759-5.12-1.897-1.012-.885-2.023-2.275-3.098-4.172l-1.896-3.477-2.086 7.965.441.633c1.075 1.327 2.213 2.34 3.414 3.098 1.96 1.2 4.362 1.896 7.207 2.023 3.35.19 6.132-.316 7.902-1.453 2.339-1.455 3.603-3.793 3.73-7.08l.064-.38c0-2.402-1.075-4.488-3.16-6.194-1.138-.886-2.909-1.834-6.26-3.414-3.033-1.264-4.298-2.086-4.804-2.465-1.327-.823-1.516-1.582-1.516-2.213v-.065c.065-1.327.505-2.275 1.516-2.844.696-.442 1.582-.633 2.782-.57 1.264 0 2.529.443 3.73 1.327.759.633 1.453 1.581 2.275 2.845l1.327 1.896 3.604-5.31-.885-.885c-1.39-1.453-2.719-2.402-4.11-3.034-1.39-.57-3.223-.949-5.562-1.075-3.098-.13-5.69.57-7.46 2.023m25.983 4.995c-1.264 1.2-2.276 2.718-3.098 4.677-.633 1.454-1.075 3.098-1.327 4.805-.696 4.551-.065 8.534 2.023 11.695 1.896 2.908 4.93 4.867 8.597 5.436 3.287.379 5.942.065 8.155-1.011 1.707-.885 3.224-2.34 4.678-4.425l.57-.822-3.161-4.742-1.201 2.466c-.759 1.516-1.707 2.655-2.908 3.477-1.327.948-2.908 1.2-4.994.948-2.086-.316-3.793-1.644-5.12-4.172-1.264-2.34-1.644-5.247-1.138-8.534.442-3.098 1.707-5.626 3.92-7.586 1.833-1.644 3.603-2.34 5.689-2.023 1.137.19 2.212.759 3.477 1.96 1.2 1.011 2.086 2.275 2.718 3.54l1.074 2.339 4.11-5.247-.76-1.012c-1.58-1.896-3.097-3.16-4.74-3.982-1.834-.949-3.73-1.644-5.69-1.96-2.34-.379-4.425-.13-6.575.822a13.7 13.7 0 0 0-4.298 3.35m25.032 29.585 3.287-12.706 9.988 2.465-3.16 12.77 5.373 1.39 7.27-28.953-5.247-1.453-3.224 12.138-9.988-2.592 3.034-12.011-5.31-1.39-7.333 28.953zm22.757-9.672c-1.453 3.857-1.58 7.523-.504 11.063 1.39 3.983 4.045 6.764 7.965 8.218 3.982 1.327 7.712.948 11.442-1.2 3.097-1.96 5.31-4.931 6.637-8.724.76-2.086 1.201-4.173 1.201-6.259a14.9 14.9 0 0 0-.759-4.741c-1.264-3.982-3.982-6.827-7.839-8.155-3.982-1.516-7.775-1.137-11.378 1.075-2.971 1.896-5.247 4.804-6.764 8.724m20.355 7.522c-1.075 2.971-2.655 5.184-4.804 6.701s-4.299 1.833-6.638 1.075c-2.339-.885-3.73-2.592-4.362-5.247a13.4 13.4 0 0 1-.315-2.782c0-1.706.315-3.413 1.011-5.31 1.075-2.97 2.655-5.183 4.678-6.764 2.276-1.58 4.425-1.96 6.764-1.074 2.276.759 3.667 2.465 4.362 5.183.633 2.466.379 5.31-.696 8.218m8.155 3.225c-1.833 3.666-2.34 7.142-1.644 10.872.696 4.11 3.16 7.207 6.954 9.04 3.666 1.833 7.46 1.897 11.315.19 3.161-1.517 5.69-4.11 7.776-7.966 1.264-2.718 1.96-5.373 1.96-7.965 0-.948-.13-1.96-.316-2.971-.822-4.172-3.16-7.207-6.89-8.977-3.73-2.023-7.713-2.086-11.442-.19-3.35 1.644-5.943 4.3-7.713 7.966m17.195-4.046c2.276 1.201 3.54 2.971 3.856 5.69.065.443.13.948.13 1.39v.065c0 2.086-.633 4.298-1.834 6.637q-2.085 4.077-5.31 6.069c-2.528 1.327-4.74 1.455-6.89.378-2.213-1.137-3.477-2.97-3.793-5.626-.065-.568-.13-1.074-.13-1.643 0-2.15.57-4.236 1.77-6.448 1.264-2.719 3.098-4.805 5.437-6.132 2.276-1.327 4.615-1.455 6.764-.379m17.447 40.394 2.276-3.477-11.126-7.08 13.528-21.683-4.615-2.908-15.93 25.223zm15.488 11.695 8.534-10.367 9.23 7.585 2.78-3.097-9.418-7.712 5.057-6.132 9.672 8.028 2.718-3.287-13.907-11.695-18.902 23.2zm15.867 7.586c-.57 4.298.696 7.775 3.856 10.873 2.908 2.971 6.385 4.172 10.747 3.666 3.666-.443 7.017-2.212 9.798-5.12 2.908-2.908 4.552-6.132 4.93-9.862.13-.57.13-1.137.13-1.706 0-3.35-1.327-6.448-3.793-8.977-2.908-2.908-6.637-4.172-10.746-3.667-3.604.442-6.828 2.086-9.799 4.994-2.97 3.035-4.678 6.259-5.12 9.799m24.464-1.644c-.442 2.655-1.833 5.058-3.982 7.207-2.276 2.275-4.615 3.666-7.144 4.109-2.718.505-4.804-.065-6.51-1.77-1.454-1.453-2.15-3.035-2.15-4.994 0-.505.065-1.075.19-1.644.44-2.402 1.832-4.741 4.171-7.08 2.023-2.15 4.489-3.603 7.144-4.109 2.655-.57 4.804.065 6.51 1.77 1.708 1.833 2.277 3.983 1.77 6.511m-5.881 27.625 10.241-8.218 2.529 3.288-6.195 13.148 4.614 5.563 6.132-14.413a7.76 7.76 0 0 0 3.604 1.138c1.96.253 3.92-.252 5.5-1.644 1.96-1.39 3.034-3.35 3.16-5.689v-.568c0-2.339-.948-4.678-2.718-6.764l-7.08-8.914-23.264 18.775zm19.913-16.056 3.098 3.856c1.011 1.327 1.516 2.528 1.516 3.982-.13 1.138-.57 2.087-1.453 2.782-.885.759-1.707.948-2.845.822-1.327-.19-2.591-1.011-3.603-2.276l-3.098-3.92zm24.591 34.326-21.999 13.149 2.845 4.678 21.999-13.086 4.804 8.028 3.667-2.15-12.327-20.67-3.92 1.96zm-11.505 32.24 12.01-5.69 4.49 9.293-12.012 5.69 2.466 4.93 26.93-12.643-2.403-4.994-11.189 5.247-4.488-9.293 11.189-5.436-2.34-4.931-26.866 12.643zm14.603 35.148 3.92-1.644-4.616-12.896 8.282-3.034 4.298 11.568 4.046-1.39-4.425-11.569 7.775-2.908 4.425 12.264 3.983-1.454-6.258-17.448-27.942 10.367zm7.902 15.298c-2.023 2.781-2.655 6.195-1.897 9.988.505 2.402 1.138 4.425 2.023 6.069 1.011 1.96 2.466 3.413 4.046 4.109l.505.189 11.568-2.529-1.137-5.31-10.43 2.276s-.253-.13-.76-.822c-.696-.948-1.2-2.529-1.707-4.741-.378-1.834.065-3.477 1.327-5.247 1.833-2.15 4.615-3.603 8.471-4.425 2.971-.633 5.69-.379 8.281.696 2.276 1.137 3.604 2.718 4.046 4.994.379 1.96.316 3.666-.378 5.247-.505 1.39-1.264 2.591-2.403 3.73l-2.023 2.149 6.828 1.2.57-.948c1.137-1.896 1.833-3.73 2.086-5.69.064-.504.13-1.074.13-1.706 0-1.58-.253-3.287-.697-4.93-.822-3.92-2.97-6.891-6.51-8.788-3.73-1.833-7.524-2.276-11.696-1.264-4.615 1.012-8.028 2.908-10.24 5.753m1.577 25.792.76 5.563 29.458-3.983-.633-5.436zm1.707 15.045 13.338-.948.822 11.884 4.362-.189-1.011-12.01 7.902-.634.948 12.517 4.236-.315-1.327-18.08-29.712 2.275zm.885 21.809-.065 5.5 25.476.379-.13 9.42 4.236.129.379-24.275h-4.236l-.19 9.23zm1.706 36.034 1.517-13.782 8.724.886-1.264 12.327 4.172.57 1.264-12.391 8.281.948-1.39 12.77 4.172.505 1.96-18.46-29.648-3.033-1.96 19.027zm-6.574 11.694c-.696 3.604-.065 6.828 2.086 9.988 2.402 2.972 5.69 4.868 10.368 5.943 4.74.948 8.787.315 11.695-1.833 2.591-1.77 4.298-4.426 5.057-8.092l2.212-10.557-29.395-5.816zm25.223 3.856c-.57 2.972-1.643 4.931-3.287 6.006-1.707 1.075-4.551 1.264-8.028.568-3.92-.759-6.575-2.023-8.029-3.793-1.137-1.264-1.707-2.718-1.707-4.615 0-.822.065-1.706.316-2.655l.759-3.54 20.861 4.236zM246.288 587.463c.76-2.34.442-4.678-1.39-7.207-1.453-1.644-3.16-3.224-5.12-4.804-1.897-1.517-3.414-2.782-4.046-3.667-.76-1.011-.949-1.96-.76-2.655.443-1.2 1.075-1.896 2.15-2.213.822-.252 1.77-.189 2.908.13 1.327.442 2.465 1.264 3.224 2.339.57.759 1.075 1.833 1.516 3.098l.696 2.212 4.931-3.983-.633-1.2c-.948-1.58-2.023-2.908-3.16-3.857-1.201-.948-2.845-1.77-4.931-2.528-2.908-1.138-5.5-1.138-7.966 0-2.022 1.011-3.476 2.592-4.109 4.804-.758 2.213-.378 4.425 1.39 6.954.949 1.327 2.782 2.971 5.121 4.741 2.592 2.086 3.604 3.287 3.92 3.73.632.696.885 1.327.885 1.96 0 .252 0 .505-.13.759-.378 1.2-1.074 2.718-2.339 3.16-.885.316-2.149.253-3.603-.189-1.77-.633-3.224-1.707-4.299-3.287-.759-1.264-1.453-2.908-2.022-4.931l-1.012-3.603-3.92 6.89.253.696c.633 1.707 1.516 3.035 2.465 3.856 1.517 1.834 3.604 3.161 6.322 4.046 3.224 1.075 5.88 1.264 8.028.696 1.897-.57 4.362-2.086 5.627-5.942m.763 9.034 5.247 1.455 7.775-28.763-5.31-1.453zm33.314-22.947-3.793 19.091L265 570.268l-2.718-.57-6.006 29.585 4.11.76 3.919-19.029 11.315 21.683.696.76 2.276.315 5.816-29.143zm32.936 29.079.19-8.85 12.453.252v-4.235l-12.39-.189.189-8.281 13.085.252v-4.235l-18.522-.379-.065 4.299-.441-.444c-1.707-1.896-3.288-3.16-4.805-3.982-1.581-.759-3.603-1.264-5.879-1.516-2.15-.253-4.299.064-6.385.885q-2.56 1.233-4.362 3.793c-1.2 1.453-2.149 3.097-2.718 4.804-.57 1.453-1.138 2.971-1.264 4.741-.57 4.615.442 8.598 2.655 11.632 2.086 2.845 4.931 4.488 8.85 4.868 3.035.315 5.753-.13 7.966-1.264 1.77-.949 3.224-2.403 4.425-4.552l.442-.822-2.972-4.615-1.2 2.529c-.822 1.644-1.644 2.781-2.782 3.54-1.39.948-2.971 1.264-4.93 1.075-2.276-.253-3.983-1.454-5.374-3.73-1.327-2.592-1.707-5.374-1.453-8.534.379-3.35 1.453-5.943 3.477-7.776 1.833-1.833 3.603-2.592 5.563-2.339 1.2.13 2.465.696 3.603 1.644 1.2 1.137 2.15 2.339 2.845 3.73l1.137 2.275 3.604-4.804-.505 24.338 19.217.505.19-4.299zm27.625-22.062.57 5.057 4.361-3.413 2.655 23.453 5.437-.57-3.35-31.545zm37.487 10.747c0-1.834-.253-3.793-.696-6.132-1.011-5.31-2.718-8.85-5.12-10.873-1.96-1.644-4.3-2.276-6.954-1.77-2.529.443-4.362 1.643-5.69 3.603-1.453 2.212-1.833 5.31-1.2 8.787.441 2.465 1.39 4.425 3.097 6.132 1.707 1.516 3.983 2.15 6.511 1.643a9.1 9.1 0 0 0 4.425-2.149c.253 2.592.13 4.678-.315 6.006-.505 1.327-1.517 2.149-2.845 2.402-.57.13-1.138-.065-1.77-.444-.822-.568-1.581-1.39-2.276-2.402l-1.643-2.528-2.655 6.321.822.76q1.612 1.516 3.224 2.085c1.39.57 2.97.76 4.678.442 3.35-.696 5.879-2.592 7.08-5.373.885-1.833 1.327-3.983 1.327-6.511m-14.603-10.43c0-1.075.19-2.024.505-2.72.253-.632.696-1.263 2.086-1.516.885-.129 1.581 0 2.276.57 1.327 1.012 2.402 3.477 3.224 7.46 0 .57-.316 1.137-1.012 1.896-.948 1.075-1.706 1.644-2.655 1.833-.632.13-1.453.13-2.528-1.074-.76-.822-1.264-2.023-1.581-3.414-.19-1.138-.316-2.15-.316-3.034m35.339 5.815c-.76-2.086-1.77-3.54-3.098-4.615-.885-.696-1.96-1.2-3.287-1.644.505-.632.822-1.327 1.138-2.022a7.95 7.95 0 0 0 .315-5.12c-.633-2.466-1.896-4.173-3.73-4.995-1.833-.822-3.982-.885-6.195-.252-2.781.759-4.678 2.275-5.626 4.425-.759 1.77-.822 3.603-.316 5.563.57 1.833 1.644 3.477 3.161 4.614.57.38 1.201.76 1.897 1.012-1.075 1.264-1.77 2.528-2.086 3.73-.379 1.516-.316 3.224.189 4.93.759 2.719 2.276 4.615 4.299 5.374 1.833.948 4.172 1.074 6.827.315 2.529-.885 4.362-2.212 5.436-3.92 1.012-1.263 1.517-2.78 1.517-4.487 0-.886-.13-1.77-.442-2.908m-7.207-.633c1.138.633 1.77 1.453 2.086 2.592.38 1.453.38 2.465 0 3.35-.378.822-1.263 1.39-2.591 1.77-1.075.316-1.897.253-2.655-.13-.76-.441-1.39-1.39-1.77-2.844a6.5 6.5 0 0 1-.38-2.213c0-.504.066-1.011.19-1.453.19-.885.505-1.644 1.012-2.276 2.276.444 3.476.949 4.109 1.201m-6.828-7.775c-1.074-.568-1.77-1.264-2.023-2.34-.315-1.074-.252-1.833.19-2.528.315-.57 1.011-.948 2.023-1.264 1.643-.443 2.276-.065 2.592.13.441.252.948.759 1.327 2.275.378 1.264.378 2.086 0 3.098-.19.759-.505 1.327-1.012 1.77-1.327-.253-2.276-.633-3.097-1.138m12.265-12.326c-1.201 1.706-1.582 3.602-1.138 5.625l.19.696 5.941 3.161-.504.19 1.327 4.045 3.666-1.264c1.581-.57 2.908-.57 4.11 0 1.263.633 2.085 1.581 2.528 2.908.57 1.707.633 3.035.13 4.11-.443.884-1.39 1.643-2.972 2.275-.505.19-1.327.443-2.528-.442-.57-.379-1.517-1.138-2.782-2.781l-2.213-2.971-1.327 7.965.57.57c1.138 1.263 2.655 2.086 4.235 2.338 1.644.253 3.477.065 5.563-.695 3.098-1.201 5.247-2.845 6.385-4.931a7.5 7.5 0 0 0 .885-3.54c0-1.138-.252-2.34-.695-3.604-.823-2.212-2.15-3.856-4.11-4.93a10.3 10.3 0 0 0-2.338-.822c.189-.316.378-.696.57-1.012.948-1.96 1.01-3.92.315-5.942-.822-2.276-2.213-3.856-4.11-4.868-1.833-.822-4.045-.822-6.7.13-2.34 1.011-3.92 2.212-4.994 3.793m4.425 6.195c-.379-1.327-.442-2.466-.253-3.35.253-1.328.886-2.024 2.023-2.466.822-.252 1.897-.505 2.719 0 .504.316 1.137 1.011 1.643 2.402.57 1.581.505 2.845 0 3.73s-1.453 1.58-2.781 2.086l-2.529.822zm0 0"/></svg>